0
SECTION
2
HEADER
9
$INSUNITS
70
4
0
ENDSEC
0
SECTION
2
TABLES
0
TABLE
2
LTYPE
0
LTYPE
72
65
70
64
2
CONTINUOUS
3
______
73
0
40
0
0
ENDTAB
0
TABLE
2
LAYER
0
ENDTAB
0
ENDSEC
0
SECTION
2
ENTITIES
0
LINE
8
0
10
39.5
20
-140.51
11
39.5
21
-64.24
0
LINE
8
0
10
40.49
20
-63.25
11
76.51
21
-63.25
0
LINE
8
0
10
77.5
20
-62.26
11
77.5
21
-61.49
0
LINE
8
0
10
78.49
20
-60.5
11
95.51
21
-60.5
0
LINE
8
0
10
96.5
20
-59.51
11
96.5
21
-57.99
0
LINE
8
0
10
97.49
20
-57
11
116.51
21
-57
0
LINE
8
0
10
117.5
20
-57.99
11
117.5
21
-59.26
0
LINE
8
0
10
118.49
20
-60.25
11
135.7394045
21
-60.25
0
LINE
8
0
10
136.695977
20
-60.9849139
11
137.304023
21
-63.2650861
0
LINE
8
0
10
138.2605955
20
-64
11
155.5790557
21
-64
0
LINE
8
0
10
156.5664734
20
-64.9185421
11
159.1907792
21
-101.1816757
0
LINE
8
0
10
160.0650923
20
-102.0937356
11
178.321339
21
-104.193204
0
LINE
8
0
10
179.1966189
20
-105.2332561
11
177.0000751
21
-143.6352338
0
LINE
8
0
10
176.8690557
20
-144.0736995
11
165.8061527
21
-163.2352094
0
LINE
8
0
10
164.8507697
20
-163.7253452
11
144.4841605
21
-161.698933
0
LINE
8
0
10
144.4465075
20
-161.6959109
11
108.5301547
21
-159.5018421
0
LINE
8
0
10
87.1118537
20
-159.5
11
108.4697898
21
-159.5
0
LINE
8
0
10
86.2263707
20
-158.9527415
11
77.7736293
21
-142.0472585
0
LINE
8
0
10
40.49
20
-141.5
11
76.8881464
21
-141.5
0
ARC
8
0
10
40.49
20
-64.24
40
0.99
50
90
51
180
0
ARC
8
0
10
76.51
20
-62.26
40
0.99
50
270
51
0
0
ARC
8
0
10
78.49
20
-61.49
40
0.99
50
90
51
180
0
ARC
8
0
10
95.51
20
-59.51
40
0.99
50
270
51
0
0
ARC
8
0
10
97.49
20
-57.99
40
0.99
50
90
51
180
0
ARC
8
0
10
116.51
20
-57.99
40
0.99
50
0
51
90
0
ARC
8
0
10
118.49
20
-59.26
40
0.99
50
180
51
270
0
ARC
8
0
10
135.7394045
20
-61.24
40
0.99
50
14.9314205
51
90
0
ARC
8
0
10
138.2605955
20
-63.01
40
0.99
50
194.9314205
51
270
0
ARC
8
0
10
155.5790557
20
-64.99
40
0.99
50
4.1391918
51
90
0
ARC
8
0
10
160.1781969
20
-101.1102178
40
0.99
50
184.1391918
51
263.4398051
0
ARC
8
0
10
178.2082344
20
-105.1767218
40
0.99
50
356.7263208
51
83.4398051
0
ARC
8
0
10
176.0116906
20
-143.5786995
40
0.99
50
329.9999999
51
356.7263208
0
ARC
8
0
10
164.9487876
20
-162.7402094
40
0.99
50
264.3179559
51
329.9999999
0
ARC
8
0
10
144.3861427
20
-162.6840688
40
0.99
50
84.3179559
51
86.5042443
0
ARC
8
0
10
108.4697898
20
-160.49
40
0.99
50
86.5042443
51
90
0
ARC
8
0
10
87.1118537
20
-158.51
40
0.99
50
206.5650512
51
270
0
ARC
8
0
10
76.8881464
20
-142.49
40
0.99
50
26.5650512
51
90
0
ARC
8
0
10
40.49
20
-140.51
40
0.99
50
180
51
270
0
ENDSEC
0
EOF