0
SECTION
2
HEADER
9
$INSUNITS
70
4
0
ENDSEC
0
SECTION
2
TABLES
0
TABLE
2
LTYPE
0
LTYPE
72
65
70
64
2
CONTINUOUS
3
______
73
0
40
0
0
ENDTAB
0
TABLE
2
LAYER
0
ENDTAB
0
ENDSEC
0
SECTION
2
ENTITIES
0
LINE
8
0
10
39.5
20
-141.6516717
11
39.5
21
-84.5
0
LINE
8
0
10
41.5
20
-82.5
11
76.5387503
21
-82.5
0
LINE
8
0
10
78.100488
20
-81.74939
11
78.899512
21
-80.75061
0
LINE
8
0
10
80.4612497
20
-80
11
95.4296325
21
-80
0
LINE
8
0
10
97.0937331
20
-79.1094004
11
97.9062669
21
-77.8905996
0
LINE
8
0
10
99.5703675
20
-77
11
114.5387503
21
-77
0
LINE
8
0
10
116.100488
20
-77.75061
11
116.899512
21
-78.74939
0
LINE
8
0
10
118.4612497
20
-79.5
11
133.3393549
21
-79.5
0
LINE
8
0
10
135.0758412
20
-80.5077221
11
135.9241588
21
-81.9922779
0
LINE
8
0
10
137.6606451
20
-83
11
175.25
21
-83
0
LINE
8
0
10
177.25
20
-150
11
177.25
21
-85
0
LINE
8
0
10
177.25
20
-150
11
177.2163119
21
-150.6309468
0
LINE
8
0
10
177.2163119
20
-150.6309468
11
173.6068559
21
-166.2652184
0
LINE
8
0
10
171.253188
20
-167.7738957
11
151.733649
21
-163.7383158
0
LINE
8
0
10
151.3675942
20
-163.6972731
11
115.5259823
21
-163.0005051
0
LINE
8
0
10
115.4740399
20
-162.99882
11
94.2567124
21
-162.034396
0
LINE
8
0
10
92.9559374
20
-161.4729393
11
78.016834
21
-147.0006829
0
LINE
8
0
10
76.7826486
20
-146.443367
11
41.342595
21
-143.645468
0
ARC
8
0
10
41.5
20
-84.5
40
2
50
90
51
180
0
ARC
8
0
10
76.5387503
20
-80.5
40
2
50
270
51
321.3401935
0
ARC
8
0
10
80.4612497
20
-82
40
2
50
90
51
141.3401935
0
ARC
8
0
10
95.4296325
20
-78
40
2
50
270
51
326.3099325
0
ARC
8
0
10
99.5703675
20
-79
40
2
50
90
51
146.3099325
0
ARC
8
0
10
114.5387503
20
-79
40
2
50
38.6598065
51
90
0
ARC
8
0
10
118.4612497
20
-77.5
40
2
50
218.6598065
51
270
0
ARC
8
0
10
133.3393549
20
-81.5
40
2
50
29.7448806
51
90
0
ARC
8
0
10
137.6606451
20
-81
40
2
50
209.7448806
51
270
0
ARC
8
0
10
175.25
20
-85
40
2
50
0
51
90
0
ARC
8
0
10
171.6581158
20
-165.8153162
40
2
50
258.3189214
51
346.9999979
0
ARC
8
0
10
151.3287212
20
-165.6968953
40
2
50
78.3189214
51
88.8863005
0
ARC
8
0
10
115.5648553
20
-161.0008829
40
2
50
267.3974355
51
268.8863005
0
ARC
8
0
10
94.3475278
20
-160.0364589
40
2
50
225.9093802
51
267.3974355
0
ARC
8
0
10
76.6252436
20
-148.4371633
40
2
50
45.9093802
51
85.4860105
0
ARC
8
0
10
41.5
20
-141.6516717
40
2
50
180
51
265.4860105
0
ENDSEC
0
EOF