0
SECTION
2
HEADER
9
$INSUNITS
70
4
0
ENDSEC
0
SECTION
2
TABLES
0
TABLE
2
LTYPE
0
LTYPE
72
65
70
64
2
CONTINUOUS
3
______
73
0
40
0
0
ENDTAB
0
TABLE
2
LAYER
0
ENDTAB
0
ENDSEC
0
SECTION
2
ENTITIES
0
LINE
8
0
10
39.5
20
-140.8552483
11
39.5
21
-83.49
0
LINE
8
0
10
40.49
20
-82.5
11
76.51
21
-82.5
0
LINE
8
0
10
77.5
20
-81.51
11
77.5
21
-80.99
0
LINE
8
0
10
78.49
20
-80
11
95.51
21
-80
0
LINE
8
0
10
96.5
20
-79.01
11
96.5
21
-77.99
0
LINE
8
0
10
97.49
20
-77
11
116.51
21
-77
0
LINE
8
0
10
117.5
20
-77.99
11
117.5
21
-78.51
0
LINE
8
0
10
118.49
20
-79.5
11
135.51
21
-79.5
0
LINE
8
0
10
136.5
20
-80.49
11
136.5
21
-82.01
0
LINE
8
0
10
137.49
20
-83
11
177.26
21
-83
0
LINE
8
0
10
178.25
20
-121.991161
11
178.25
21
-83.99
0
LINE
8
0
10
178.2498422
20
-122.0088368
11
177.7531173
21
-149.8254318
0
LINE
8
0
10
177.6873546
20
-150.1629702
11
169.958036
21
-170.2705683
0
LINE
8
0
10
168.6953565
20
-170.8456498
11
167.8209356
21
-170.5273866
0
LINE
8
0
10
167.6338455
20
-170.4793445
11
146.7512243
21
-167.2453671
0
LINE
8
0
10
146.6811016
20
-167.237056
11
113.5181977
21
-164.5015011
0
LINE
8
0
10
113.4817642
20
-164.4991711
11
91.5224642
21
-163.5010211
0
LINE
8
0
10
91.4775106
20
-163.5
11
90.5
21
-163.5
0
LINE
8
0
10
90.5
20
-163.5
11
58.5065611
21
-149.9027885
0
LINE
8
0
10
58.4934826
20
-149.8971186
11
40.0896923
21
-141.7607061
0
ARC
8
0
10
40.49
20
-83.49
40
0.99
50
90
51
180
0
ARC
8
0
10
76.51
20
-81.51
40
0.99
50
270
51
0
0
ARC
8
0
10
78.49
20
-80.99
40
0.99
50
90
51
180
0
ARC
8
0
10
95.51
20
-79.01
40
0.99
50
270
51
0
0
ARC
8
0
10
97.49
20
-77.99
40
0.99
50
90
51
180
0
ARC
8
0
10
116.51
20
-77.99
40
0.99
50
0
51
90
0
ARC
8
0
10
118.49
20
-78.51
40
0.99
50
180
51
270
0
ARC
8
0
10
135.51
20
-80.49
40
0.99
50
0
51
90
0
ARC
8
0
10
137.49
20
-82.01
40
0.99
50
180
51
270
0
ARC
8
0
10
177.26
20
-83.99
40
0.99
50
0
51
90
0
ARC
8
0
10
177.26
20
-121.991161
40
0.99
50
358.9769696
51
0
0
ARC
8
0
10
176.7632751
20
-149.807756
40
0.99
50
338.9733464
51
358.9769696
0
ARC
8
0
10
169.0339565
20
-169.9153541
40
0.99
50
250.0000019
51
338.9733464
0
ARC
8
0
10
167.4823357
20
-171.4576823
40
0.99
50
70.0000019
51
81.1968484
0
ARC
8
0
10
146.5997145
20
-168.2237049
40
0.99
50
81.1968484
51
85.284438
0
ARC
8
0
10
113.4368106
20
-165.48815
40
0.99
50
85.284438
51
87.3974355
0
ARC
8
0
10
91.4775106
20
-164.49
40
0.99
50
87.3974355
51
90
0
ARC
8
0
10
58.8937903
20
-148.9916609
40
0.99
50
246.1495237
51
246.9745097
0
ARC
8
0
10
40.49
20
-140.8552483
40
0.99
50
180
51
246.1495237
0
ENDSEC
0
EOF