0
SECTION
2
HEADER
9
$INSUNITS
70
4
0
ENDSEC
0
SECTION
2
TABLES
0
TABLE
2
LTYPE
0
LTYPE
72
65
70
64
2
CONTINUOUS
3
______
73
0
40
0
0
ENDTAB
0
TABLE
2
LAYER
0
ENDTAB
0
ENDSEC
0
SECTION
2
ENTITIES
0
LINE
8
0
10
39.5
20
-140.8321251
11
39.5
21
-64.49
0
LINE
8
0
10
40.49
20
-63.5
11
58.4351475
21
-63.5
0
LINE
8
0
10
58.5642975
20
-63.4915398
11
77.4873536
21
-61.001664
0
LINE
8
0
10
77.5126066
20
-60.9980095
11
96.4232735
21
-58.0121147
0
LINE
8
0
10
96.5776765
20
-58
11
117.4351475
21
-58
0
LINE
8
0
10
117.5642975
20
-58.0084602
11
136.481164
21
-60.4975216
0
LINE
8
0
10
136.5189179
20
-60.501754
11
172.9592868
21
-63.8803312
0
LINE
8
0
10
173.7948567
20
-65.2137156
11
159.7460081
21
-102.6773116
0
LINE
8
0
10
160.6625536
20
-104.014869
11
177.2704204
21
-104.1896886
0
LINE
8
0
10
178.25
20
-141.8502388
11
178.25
21
-105.1796338
0
LINE
8
0
10
178.2057038
20
-142.1430601
11
169.2117865
21
-171.1900594
0
LINE
8
0
10
167.9274828
20
-171.8275338
11
165.1764646
21
-170.8262451
0
LINE
8
0
10
165.1139485
20
-170.805816
11
149.2895767
21
-166.2105278
0
LINE
8
0
10
149.1151485
20
-166.1764856
11
113.5506935
21
-162.505233
0
LINE
8
0
10
91.6923569
20
-162.5
11
113.4490378
21
-162.5
0
LINE
8
0
10
91.3216385
20
-162.4279694
11
40.1192816
21
-141.7500945
0
ARC
8
0
10
40.49
20
-64.49
40
0.99
50
90
51
180
0
ARC
8
0
10
58.4351475
20
-62.51
40
0.99
50
270
51
277.4958569
0
ARC
8
0
10
77.3582036
20
-60.0201242
40
0.99
50
277.4958569
51
278.9726278
0
ARC
8
0
10
96.5776765
20
-58.99
40
0.99
50
90
51
98.9726278
0
ARC
8
0
10
117.4351475
20
-58.99
40
0.99
50
82.5041431
51
90
0
ARC
8
0
10
136.610314
20
-59.5159818
40
0.99
50
262.5041431
51
264.7029514
0
ARC
8
0
10
172.8678907
20
-64.8661034
40
0.99
50
339.4439575
51
84.7029514
0
ARC
8
0
10
160.6729741
20
-103.0249238
40
0.99
50
159.4439575
51
269.3969107
0
ARC
8
0
10
177.26
20
-105.1796338
40
0.99
50
0
51
89.3969107
0
ARC
8
0
10
177.26
20
-141.8502388
40
0.99
50
342.7957391
51
0
0
ARC
8
0
10
168.2660827
20
-170.8972381
40
0.99
50
250.0000019
51
342.7957391
0
ARC
8
0
10
164.8378647
20
-171.7565408
40
0.99
50
70.0000019
51
73.8070704
0
ARC
8
0
10
149.0134928
20
-167.1612526
40
0.99
50
73.8070704
51
84.1063383
0
ARC
8
0
10
113.4490378
20
-163.49
40
0.99
50
84.1063383
51
90
0
ARC
8
0
10
91.6923569
20
-161.51
40
0.99
50
248.0088719
51
270
0
ARC
8
0
10
40.49
20
-140.8321251
40
0.99
50
180
51
248.0088719
0
ENDSEC
0
EOF