0
SECTION
2
HEADER
9
$INSUNITS
70
4
0
ENDSEC
0
SECTION
2
TABLES
0
TABLE
2
LTYPE
0
LTYPE
72
65
70
64
2
CONTINUOUS
3
______
73
0
40
0
0
ENDTAB
0
TABLE
2
LAYER
0
ENDTAB
0
ENDSEC
0
SECTION
2
ENTITIES
0
LINE
8
0
10
39.5
20
-140.8552483
11
39.5
21
-83.49
0
LINE
8
0
10
40.49
20
-82.5
11
76.51
21
-82.5
0
LINE
8
0
10
77.5
20
-81.51
11
77.5
21
-80.99
0
LINE
8
0
10
78.49
20
-80
11
95.51
21
-80
0
LINE
8
0
10
96.5
20
-79.01
11
96.5
21
-77.99
0
LINE
8
0
10
97.49
20
-77
11
116.51
21
-77
0
LINE
8
0
10
117.5
20
-77.99
11
117.5
21
-78.51
0
LINE
8
0
10
118.49
20
-79.5
11
135.51
21
-79.5
0
LINE
8
0
10
136.5
20
-80.49
11
136.5
21
-82.01
0
LINE
8
0
10
137.49
20
-83
11
156.1005606
21
-83
0
LINE
8
0
10
156.7875959
20
-83.2772009
11
157
21
-83.4819277
0
LINE
8
0
10
177.7492023
20
-121.9696862
11
177.7496574
21
-121.9869812
0
LINE
8
0
10
177.75
20
-122.0130248
11
177.75
21
-149.8162761
0
LINE
8
0
10
177.6840795
20
-150.1714903
11
169.958036
21
-170.2705683
0
LINE
8
0
10
168.6953565
20
-170.8456498
11
167.8209356
21
-170.5273866
0
LINE
8
0
10
167.6338455
20
-170.4793445
11
146.7512243
21
-167.2453671
0
LINE
8
0
10
146.6811016
20
-167.237056
11
113.5181977
21
-164.5015011
0
LINE
8
0
10
113.4817642
20
-164.4991711
11
91.5224642
21
-163.5010211
0
LINE
8
0
10
91.4775106
20
-163.5
11
90.5
21
-163.5
0
LINE
8
0
10
90.5
20
-163.5
11
58.5065611
21
-149.9027885
0
LINE
8
0
10
58.4934826
20
-149.8971186
11
40.0896923
21
-141.7607061
0
ARC
8
0
10
40.49
20
-83.49
40
0.99
50
90
51
180
0
ARC
8
0
10
76.51
20
-81.51
40
0.99
50
270
51
0
0
ARC
8
0
10
78.49
20
-80.99
40
0.99
50
90
51
180
0
ARC
8
0
10
95.51
20
-79.01
40
0.99
50
270
51
0
0
ARC
8
0
10
97.49
20
-77.99
40
0.99
50
90
51
180
0
ARC
8
0
10
116.51
20
-77.99
40
0.99
50
0
51
90
0
ARC
8
0
10
118.49
20
-78.51
40
0.99
50
180
51
270
0
ARC
8
0
10
135.51
20
-80.49
40
0.99
50
0
51
90
0
ARC
8
0
10
137.49
20
-82.01
40
0.99
50
180
51
270
0
ARC
8
0
10
156.1005606
20
-83.99
40
0.99
50
46.054406
51
90
0
ARC
8
0
10
176.76
20
-122.0130248
40
0.99
50
0
51
1.5074368
0
ARC
8
0
10
176.76
20
-149.8162761
40
0.99
50
338.9733464
51
0
0
ARC
8
0
10
169.0339565
20
-169.9153541
40
0.99
50
250.0000019
51
338.9733464
0
ARC
8
0
10
167.4823357
20
-171.4576823
40
0.99
50
70.0000019
51
81.1968484
0
ARC
8
0
10
146.5997145
20
-168.2237049
40
0.99
50
81.1968484
51
85.284438
0
ARC
8
0
10
113.4368106
20
-165.48815
40
0.99
50
85.284438
51
87.3974355
0
ARC
8
0
10
91.4775106
20
-164.49
40
0.99
50
87.3974355
51
90
0
ARC
8
0
10
58.8937903
20
-148.9916609
40
0.99
50
246.1495237
51
246.9745097
0
ARC
8
0
10
40.49
20
-140.8552483
40
0.99
50
180
51
246.1495237
0
LINE
8
0
10
43
20
-138
11
57
21
-138
0
LINE
8
0
10
57
20
-138
11
57
21
-124
0
LINE
8
0
10
57
20
-124
11
43
21
-124
0
LINE
8
0
10
43
20
-124
11
43
21
-138
0
LINE
8
0
10
43
20
-119
11
57
21
-119
0
LINE
8
0
10
57
20
-119
11
57
21
-105
0
LINE
8
0
10
57
20
-105
11
43
21
-105
0
LINE
8
0
10
43
20
-105
11
43
21
-119
0
LINE
8
0
10
43
20
-100
11
57
21
-100
0
LINE
8
0
10
57
20
-100
11
57
21
-86
0
LINE
8
0
10
57
20
-86
11
43
21
-86
0
LINE
8
0
10
43
20
-86
11
43
21
-100
0
LINE
8
0
10
62
20
-138
11
76
21
-138
0
LINE
8
0
10
76
20
-138
11
76
21
-124
0
LINE
8
0
10
76
20
-124
11
62
21
-124
0
LINE
8
0
10
62
20
-124
11
62
21
-138
0
LINE
8
0
10
62
20
-119
11
76
21
-119
0
LINE
8
0
10
76
20
-119
11
76
21
-105
0
LINE
8
0
10
76
20
-105
11
62
21
-105
0
LINE
8
0
10
62
20
-105
11
62
21
-119
0
LINE
8
0
10
62
20
-100
11
76
21
-100
0
LINE
8
0
10
76
20
-100
11
76
21
-86
0
LINE
8
0
10
76
20
-86
11
62
21
-86
0
LINE
8
0
10
62
20
-86
11
62
21
-100
0
LINE
8
0
10
81
20
-135.5
11
95
21
-135.5
0
LINE
8
0
10
95
20
-135.5
11
95
21
-121.5
0
LINE
8
0
10
95
20
-121.5
11
81
21
-121.5
0
LINE
8
0
10
81
20
-121.5
11
81
21
-135.5
0
LINE
8
0
10
81
20
-116.5
11
95
21
-116.5
0
LINE
8
0
10
95
20
-116.5
11
95
21
-102.5
0
LINE
8
0
10
95
20
-102.5
11
81
21
-102.5
0
LINE
8
0
10
81
20
-102.5
11
81
21
-116.5
0
LINE
8
0
10
81
20
-97.5
11
95
21
-97.5
0
LINE
8
0
10
95
20
-97.5
11
95
21
-83.5
0
LINE
8
0
10
95
20
-83.5
11
81
21
-83.5
0
LINE
8
0
10
81
20
-83.5
11
81
21
-97.5
0
LINE
8
0
10
100
20
-132.5
11
114
21
-132.5
0
LINE
8
0
10
114
20
-132.5
11
114
21
-118.5
0
LINE
8
0
10
114
20
-118.5
11
100
21
-118.5
0
LINE
8
0
10
100
20
-118.5
11
100
21
-132.5
0
LINE
8
0
10
100
20
-113.5
11
114
21
-113.5
0
LINE
8
0
10
114
20
-113.5
11
114
21
-99.5
0
LINE
8
0
10
114
20
-99.5
11
100
21
-99.5
0
LINE
8
0
10
100
20
-99.5
11
100
21
-113.5
0
LINE
8
0
10
100
20
-94.5
11
114
21
-94.5
0
LINE
8
0
10
114
20
-94.5
11
114
21
-80.5
0
LINE
8
0
10
114
20
-80.5
11
100
21
-80.5
0
LINE
8
0
10
100
20
-80.5
11
100
21
-94.5
0
LINE
8
0
10
119
20
-135
11
133
21
-135
0
LINE
8
0
10
133
20
-135
11
133
21
-121
0
LINE
8
0
10
133
20
-121
11
119
21
-121
0
LINE
8
0
10
119
20
-121
11
119
21
-135
0
LINE
8
0
10
119
20
-116
11
133
21
-116
0
LINE
8
0
10
133
20
-116
11
133
21
-102
0
LINE
8
0
10
133
20
-102
11
119
21
-102
0
LINE
8
0
10
119
20
-102
11
119
21
-116
0
LINE
8
0
10
119
20
-97
11
133
21
-97
0
LINE
8
0
10
133
20
-97
11
133
21
-83
0
LINE
8
0
10
133
20
-83
11
119
21
-83
0
LINE
8
0
10
119
20
-83
11
119
21
-97
0
LINE
8
0
10
138
20
-137.5
11
152
21
-137.5
0
LINE
8
0
10
152
20
-137.5
11
152
21
-123.5
0
LINE
8
0
10
152
20
-123.5
11
138
21
-123.5
0
LINE
8
0
10
138
20
-123.5
11
138
21
-137.5
0
LINE
8
0
10
138
20
-118.5
11
152
21
-118.5
0
LINE
8
0
10
152
20
-118.5
11
152
21
-104.5
0
LINE
8
0
10
152
20
-104.5
11
138
21
-104.5
0
LINE
8
0
10
138
20
-104.5
11
138
21
-118.5
0
LINE
8
0
10
138
20
-99.5
11
152
21
-99.5
0
LINE
8
0
10
152
20
-99.5
11
152
21
-85.5
0
LINE
8
0
10
152
20
-85.5
11
138
21
-85.5
0
LINE
8
0
10
138
20
-85.5
11
138
21
-99.5
0
LINE
8
0
10
110
20
-158.5
11
110
21
-143.5
0
LINE
8
0
10
115
20
-157
11
129
21
-157
0
LINE
8
0
10
129
20
-157
11
129
21
-143
0
LINE
8
0
10
129
20
-143
11
115
21
-143
0
LINE
8
0
10
115
20
-143
11
115
21
-157
0
LINE
8
0
10
133.4267859
20
-156.9497475
11
146.9497475
21
-160.5732141
0
LINE
8
0
10
146.9497475
20
-160.5732141
11
150.5732141
21
-147.0502525
0
LINE
8
0
10
150.5732141
20
-147.0502525
11
137.0502525
21
-143.4267859
0
LINE
8
0
10
137.0502525
20
-143.4267859
11
133.4267859
21
-156.9497475
0
LINE
8
0
10
154.0195598
20
-162.8436521
11
167.1752564
21
-167.6319341
0
LINE
8
0
10
167.1752564
20
-167.6319341
11
171.9635384
21
-154.4762375
0
LINE
8
0
10
171.9635384
20
-154.4762375
11
158.8078418
21
-149.6879555
0
LINE
8
0
10
158.8078418
20
-149.6879555
11
154.0195598
21
-162.8436521
0
LINE
8
0
10
158.5
20
-139
11
176.5
21
-139
0
LINE
8
0
10
176.5
20
-139
11
176.5
21
-124
0
LINE
8
0
10
176.5
20
-124
11
158.5
21
-124
0
LINE
8
0
10
158.5
20
-124
11
158.5
21
-139
0
LINE
8
0
10
157
20
-83.4819277
11
157
21
-121
0
LINE
8
0
10
159
20
-123
11
176
21
-123
0
ARC
8
0
10
159
20
-121
40
2
50
180
51
270
0
ARC
8
0
10
176
20
-121
40
2
50
270
51
330.9978068
0
LINE
8
0
10
92
20
-158.5
11
110
21
-158.5
0
LINE
8
0
10
110
20
-143.5
11
92
21
-143.5
0
LINE
8
0
10
92
20
-143.5
11
92
21
-158.5
0
ENDSEC
0
EOF