0
SECTION
2
HEADER
9
$INSUNITS
70
4
0
ENDSEC
0
SECTION
2
TABLES
0
TABLE
2
LTYPE
0
LTYPE
72
65
70
64
2
CONTINUOUS
3
______
73
0
40
0
0
ENDTAB
0
TABLE
2
LAYER
0
ENDTAB
0
ENDSEC
0
SECTION
2
ENTITIES
0
LINE
8
0
10
43
20
-138
11
57
21
-138
0
LINE
8
0
10
57
20
-138
11
57
21
-124
0
LINE
8
0
10
57
20
-124
11
43
21
-124
0
LINE
8
0
10
43
20
-124
11
43
21
-138
0
LINE
8
0
10
43
20
-119
11
57
21
-119
0
LINE
8
0
10
57
20
-119
11
57
21
-105
0
LINE
8
0
10
57
20
-105
11
43
21
-105
0
LINE
8
0
10
43
20
-105
11
43
21
-119
0
LINE
8
0
10
43
20
-100
11
57
21
-100
0
LINE
8
0
10
57
20
-100
11
57
21
-86
0
LINE
8
0
10
57
20
-86
11
43
21
-86
0
LINE
8
0
10
43
20
-86
11
43
21
-100
0
LINE
8
0
10
62
20
-138
11
76
21
-138
0
LINE
8
0
10
76
20
-138
11
76
21
-124
0
LINE
8
0
10
76
20
-124
11
62
21
-124
0
LINE
8
0
10
62
20
-124
11
62
21
-138
0
LINE
8
0
10
62
20
-119
11
76
21
-119
0
LINE
8
0
10
76
20
-119
11
76
21
-105
0
LINE
8
0
10
76
20
-105
11
62
21
-105
0
LINE
8
0
10
62
20
-105
11
62
21
-119
0
LINE
8
0
10
62
20
-100
11
76
21
-100
0
LINE
8
0
10
76
20
-100
11
76
21
-86
0
LINE
8
0
10
76
20
-86
11
62
21
-86
0
LINE
8
0
10
62
20
-86
11
62
21
-100
0
LINE
8
0
10
81
20
-135.5
11
95
21
-135.5
0
LINE
8
0
10
95
20
-135.5
11
95
21
-121.5
0
LINE
8
0
10
95
20
-121.5
11
81
21
-121.5
0
LINE
8
0
10
81
20
-121.5
11
81
21
-135.5
0
LINE
8
0
10
81
20
-116.5
11
95
21
-116.5
0
LINE
8
0
10
95
20
-116.5
11
95
21
-102.5
0
LINE
8
0
10
95
20
-102.5
11
81
21
-102.5
0
LINE
8
0
10
81
20
-102.5
11
81
21
-116.5
0
LINE
8
0
10
81
20
-97.5
11
95
21
-97.5
0
LINE
8
0
10
95
20
-97.5
11
95
21
-83.5
0
LINE
8
0
10
95
20
-83.5
11
81
21
-83.5
0
LINE
8
0
10
81
20
-83.5
11
81
21
-97.5
0
LINE
8
0
10
100
20
-132.5
11
114
21
-132.5
0
LINE
8
0
10
114
20
-132.5
11
114
21
-118.5
0
LINE
8
0
10
114
20
-118.5
11
100
21
-118.5
0
LINE
8
0
10
100
20
-118.5
11
100
21
-132.5
0
LINE
8
0
10
100
20
-113.5
11
114
21
-113.5
0
LINE
8
0
10
114
20
-113.5
11
114
21
-99.5
0
LINE
8
0
10
114
20
-99.5
11
100
21
-99.5
0
LINE
8
0
10
100
20
-99.5
11
100
21
-113.5
0
LINE
8
0
10
100
20
-94.5
11
114
21
-94.5
0
LINE
8
0
10
114
20
-94.5
11
114
21
-80.5
0
LINE
8
0
10
114
20
-80.5
11
100
21
-80.5
0
LINE
8
0
10
100
20
-80.5
11
100
21
-94.5
0
LINE
8
0
10
119
20
-135
11
133
21
-135
0
LINE
8
0
10
133
20
-135
11
133
21
-121
0
LINE
8
0
10
133
20
-121
11
119
21
-121
0
LINE
8
0
10
119
20
-121
11
119
21
-135
0
LINE
8
0
10
119
20
-116
11
133
21
-116
0
LINE
8
0
10
133
20
-116
11
133
21
-102
0
LINE
8
0
10
133
20
-102
11
119
21
-102
0
LINE
8
0
10
119
20
-102
11
119
21
-116
0
LINE
8
0
10
119
20
-97
11
133
21
-97
0
LINE
8
0
10
133
20
-97
11
133
21
-83
0
LINE
8
0
10
133
20
-83
11
119
21
-83
0
LINE
8
0
10
119
20
-83
11
119
21
-97
0
LINE
8
0
10
138
20
-137.5
11
152
21
-137.5
0
LINE
8
0
10
152
20
-137.5
11
152
21
-123.5
0
LINE
8
0
10
152
20
-123.5
11
138
21
-123.5
0
LINE
8
0
10
138
20
-123.5
11
138
21
-137.5
0
LINE
8
0
10
138
20
-118.5
11
152
21
-118.5
0
LINE
8
0
10
152
20
-118.5
11
152
21
-104.5
0
LINE
8
0
10
152
20
-104.5
11
138
21
-104.5
0
LINE
8
0
10
138
20
-104.5
11
138
21
-118.5
0
LINE
8
0
10
138
20
-99.5
11
152
21
-99.5
0
LINE
8
0
10
152
20
-99.5
11
152
21
-85.5
0
LINE
8
0
10
152
20
-85.5
11
138
21
-85.5
0
LINE
8
0
10
138
20
-85.5
11
138
21
-99.5
0
LINE
8
0
10
96
20
-158
11
110
21
-158
0
LINE
8
0
10
110
20
-158
11
110
21
-144
0
LINE
8
0
10
110
20
-144
11
96
21
-144
0
LINE
8
0
10
96
20
-144
11
96
21
-158
0
LINE
8
0
10
115
20
-157
11
129
21
-157
0
LINE
8
0
10
129
20
-157
11
129
21
-143
0
LINE
8
0
10
129
20
-143
11
115
21
-143
0
LINE
8
0
10
115
20
-143
11
115
21
-157
0
LINE
8
0
10
133.4267859
20
-156.9497475
11
146.9497475
21
-160.5732141
0
LINE
8
0
10
146.9497475
20
-160.5732141
11
150.5732141
21
-147.0502525
0
LINE
8
0
10
150.5732141
20
-147.0502525
11
137.0502525
21
-143.4267859
0
LINE
8
0
10
137.0502525
20
-143.4267859
11
133.4267859
21
-156.9497475
0
LINE
8
0
10
154.0195598
20
-162.8436521
11
167.1752564
21
-167.6319341
0
LINE
8
0
10
167.1752564
20
-167.6319341
11
171.9635384
21
-154.4762375
0
LINE
8
0
10
171.9635384
20
-154.4762375
11
158.8078418
21
-149.6879555
0
LINE
8
0
10
158.8078418
20
-149.6879555
11
154.0195598
21
-162.8436521
0
ENDSEC
0
EOF