0
SECTION
2
HEADER
9
$INSUNITS
70
4
0
ENDSEC
0
SECTION
2
TABLES
0
TABLE
2
LTYPE
0
LTYPE
72
65
70
64
2
CONTINUOUS
3
______
73
0
40
0
0
ENDTAB
0
TABLE
2
LAYER
0
ENDTAB
0
ENDSEC
0
SECTION
2
ENTITIES
0
LINE
8
0
10
345.5
20
-141.6516717
11
345.5
21
-65.5
0
LINE
8
0
10
308.9415184
20
-63.5
11
343.5
21
-63.5
0
LINE
8
0
10
307.0441519
20
-62.1324556
11
305.9558481
21
-58.8675444
0
LINE
8
0
10
304.0584816
20
-57.5
11
289.5703675
21
-57.5
0
LINE
8
0
10
287.9062669
20
-56.6094004
11
287.0937331
21
-55.3905996
0
LINE
8
0
10
285.4296325
20
-54.5
11
270.736068
21
-54.5
0
LINE
8
0
10
268.9472136
20
-55.6055728
11
268.0527864
21
-57.3944272
0
LINE
8
0
10
266.263932
20
-58.5
11
251.736068
21
-58.5
0
LINE
8
0
10
249.9472136
20
-59.6055728
11
249.0527864
21
-61.3944272
0
LINE
8
0
10
247.263932
20
-62.5
11
209.75
21
-62.5
0
LINE
8
0
10
207.75
20
-147.9846
11
207.75
21
-64.5
0
LINE
8
0
10
207.500905
20
-148.9512082
11
205.8553327
21
-151.9319825
0
LINE
8
0
10
205.7041247
20
-153.5166247
11
210.3710914
21
-167.8800714
0
LINE
8
0
10
212.9192998
20
-169.1548028
11
232.6736871
21
-162.4116432
0
LINE
8
0
10
233.2467893
20
-162.305741
11
268.9910903
21
-161.0003254
0
LINE
8
0
10
269.0089125
20
-160.9995949
11
290.3375654
21
-160.0301107
0
LINE
8
0
10
291.5132256
20
-159.5800882
11
307.0152776
21
-146.8965911
0
LINE
8
0
10
308.1243482
20
-146.4507094
11
343.657405
21
-143.645468
0
ARC
8
0
10
343.5
20
-65.5
40
2
50
0
51
90
0
ARC
8
0
10
308.9415184
20
-61.5
40
2
50
198.4349506
51
270
0
ARC
8
0
10
304.0584816
20
-59.5
40
2
50
18.4349506
51
90
0
ARC
8
0
10
289.5703675
20
-55.5
40
2
50
213.6900675
51
270
0
ARC
8
0
10
285.4296325
20
-56.5
40
2
50
33.6900675
51
90
0
ARC
8
0
10
270.736068
20
-56.5
40
2
50
90
51
153.4349488
0
ARC
8
0
10
266.263932
20
-56.5
40
2
50
270
51
333.4349488
0
ARC
8
0
10
251.736068
20
-60.5
40
2
50
90
51
153.4349488
0
ARC
8
0
10
247.263932
20
-60.5
40
2
50
270
51
333.4349488
0
ARC
8
0
10
209.75
20
-64.5
40
2
50
90
51
180
0
ARC
8
0
10
205.75
20
-147.9846
40
2
50
331.0985777
51
0
0
ARC
8
0
10
207.6062377
20
-152.8985907
40
2
50
151.0985777
51
198.0000006
0
ARC
8
0
10
212.2732044
20
-167.2620374
40
2
50
198.0000006
51
288.8473371
0
ARC
8
0
10
233.3197825
20
-164.3044086
40
2
50
92.0915656
51
108.8473371
0
ARC
8
0
10
268.9180971
20
-159.0016578
40
2
50
272.0915656
51
272.6025645
0
ARC
8
0
10
290.24675
20
-158.0321736
40
2
50
272.6025645
51
309.2894073
0
ARC
8
0
10
308.2817532
20
-148.4445057
40
2
50
94.5139895
51
129.2894073
0
ARC
8
0
10
343.5
20
-141.6516717
40
2
50
274.5139895
51
0
0
ENDSEC
0
EOF