0
SECTION
2
HEADER
9
$INSUNITS
70
4
0
ENDSEC
0
SECTION
2
TABLES
0
TABLE
2
LTYPE
0
LTYPE
72
65
70
64
2
CONTINUOUS
3
______
73
0
40
0
0
ENDTAB
0
TABLE
2
LAYER
0
ENDTAB
0
ENDSEC
0
SECTION
2
ENTITIES
0
LINE
8
0
10
39.5
20
-141.6516717
11
39.5
21
-65.5
0
LINE
8
0
10
41.5
20
-63.5
11
76.0584816
21
-63.5
0
LINE
8
0
10
77.9558481
20
-62.1324556
11
79.0441519
21
-58.8675444
0
LINE
8
0
10
80.9415184
20
-57.5
11
95.4296325
21
-57.5
0
LINE
8
0
10
97.0937331
20
-56.6094004
11
97.9062669
21
-55.3905996
0
LINE
8
0
10
99.5703675
20
-54.5
11
114.263932
21
-54.5
0
LINE
8
0
10
116.0527864
20
-55.6055728
11
116.9472136
21
-57.3944272
0
LINE
8
0
10
118.736068
20
-58.5
11
133.263932
21
-58.5
0
LINE
8
0
10
135.0527864
20
-59.6055728
11
135.9472136
21
-61.3944272
0
LINE
8
0
10
137.736068
20
-62.5
11
155.2986415
21
-62.5
0
LINE
8
0
10
177.25
20
-148.0660415
11
177.25
21
-111.4682458
0
LINE
8
0
10
177.4298526
20
-148.8949343
11
178.7662346
21
-151.8294663
0
LINE
8
0
10
178.8482001
20
-153.2763932
11
174.1535846
21
-167.7249339
0
LINE
8
0
10
171.6047596
20
-168.9994547
11
152.3265969
21
-162.4118416
0
LINE
8
0
10
151.7528781
20
-162.3057288
11
116.0089097
21
-161.0003254
0
LINE
8
0
10
115.9910875
20
-160.9995949
11
94.6624346
21
-160.0301107
0
LINE
8
0
10
93.4867744
20
-159.5800882
11
77.9847224
21
-146.8965911
0
LINE
8
0
10
76.8756518
20
-146.4507094
11
41.342595
21
-143.645468
0
ARC
8
0
10
41.5
20
-65.5
40
2
50
90
51
180
0
ARC
8
0
10
76.0584816
20
-61.5
40
2
50
270
51
341.5650494
0
ARC
8
0
10
80.9415184
20
-59.5
40
2
50
90
51
161.5650494
0
ARC
8
0
10
95.4296325
20
-55.5
40
2
50
270
51
326.3099325
0
ARC
8
0
10
99.5703675
20
-56.5
40
2
50
90
51
146.3099325
0
ARC
8
0
10
114.263932
20
-56.5
40
2
50
26.5650512
51
90
0
ARC
8
0
10
118.736068
20
-56.5
40
2
50
206.5650512
51
270
0
ARC
8
0
10
133.263932
20
-60.5
40
2
50
26.5650512
51
90
0
ARC
8
0
10
137.736068
20
-60.5
40
2
50
206.5650512
51
270
0
ARC
8
0
10
155.2986415
20
-64.5
40
2
50
53.0814388
51
90
0
ARC
8
0
10
179.25
20
-148.0660415
40
2
50
180
51
204.484459
0
ARC
8
0
10
176.9460871
20
-152.6583592
40
2
50
341.9999994
51
24.484459
0
ARC
8
0
10
172.2514716
20
-167.1068999
40
2
50
251.1339967
51
341.9999994
0
ARC
8
0
10
151.6798849
20
-164.3043964
40
2
50
71.1339967
51
87.9084344
0
ARC
8
0
10
116.0819029
20
-159.0016578
40
2
50
267.3974355
51
267.9084344
0
ARC
8
0
10
94.75325
20
-158.0321736
40
2
50
230.7105927
51
267.3974355
0
ARC
8
0
10
76.7182468
20
-148.4445057
40
2
50
50.7105927
51
85.4860105
0
ARC
8
0
10
41.5
20
-141.6516717
40
2
50
180
51
265.4860105
0
LINE
8
0
10
43
20
-138
11
57
21
-138
0
LINE
8
0
10
57
20
-138
11
57
21
-124
0
LINE
8
0
10
57
20
-124
11
43
21
-124
0
LINE
8
0
10
43
20
-124
11
43
21
-138
0
LINE
8
0
10
43
20
-119
11
57
21
-119
0
LINE
8
0
10
57
20
-119
11
57
21
-105
0
LINE
8
0
10
57
20
-105
11
43
21
-105
0
LINE
8
0
10
43
20
-105
11
43
21
-119
0
LINE
8
0
10
43
20
-100
11
57
21
-100
0
LINE
8
0
10
57
20
-100
11
57
21
-86
0
LINE
8
0
10
57
20
-86
11
43
21
-86
0
LINE
8
0
10
43
20
-86
11
43
21
-100
0
LINE
8
0
10
43
20
-81
11
57
21
-81
0
LINE
8
0
10
57
20
-81
11
57
21
-67
0
LINE
8
0
10
57
20
-67
11
43
21
-67
0
LINE
8
0
10
43
20
-67
11
43
21
-81
0
LINE
8
0
10
62
20
-138
11
76
21
-138
0
LINE
8
0
10
76
20
-138
11
76
21
-124
0
LINE
8
0
10
76
20
-124
11
62
21
-124
0
LINE
8
0
10
62
20
-124
11
62
21
-138
0
LINE
8
0
10
62
20
-119
11
76
21
-119
0
LINE
8
0
10
76
20
-119
11
76
21
-105
0
LINE
8
0
10
76
20
-105
11
62
21
-105
0
LINE
8
0
10
62
20
-105
11
62
21
-119
0
LINE
8
0
10
62
20
-100
11
76
21
-100
0
LINE
8
0
10
76
20
-100
11
76
21
-86
0
LINE
8
0
10
76
20
-86
11
62
21
-86
0
LINE
8
0
10
62
20
-86
11
62
21
-100
0
LINE
8
0
10
62
20
-81
11
76
21
-81
0
LINE
8
0
10
76
20
-81
11
76
21
-67
0
LINE
8
0
10
76
20
-67
11
62
21
-67
0
LINE
8
0
10
62
20
-67
11
62
21
-81
0
LINE
8
0
10
81
20
-132
11
95
21
-132
0
LINE
8
0
10
95
20
-132
11
95
21
-118
0
LINE
8
0
10
95
20
-118
11
81
21
-118
0
LINE
8
0
10
81
20
-118
11
81
21
-132
0
LINE
8
0
10
81
20
-113
11
95
21
-113
0
LINE
8
0
10
95
20
-113
11
95
21
-99
0
LINE
8
0
10
95
20
-99
11
81
21
-99
0
LINE
8
0
10
81
20
-99
11
81
21
-113
0
LINE
8
0
10
81
20
-94
11
95
21
-94
0
LINE
8
0
10
95
20
-94
11
95
21
-80
0
LINE
8
0
10
95
20
-80
11
81
21
-80
0
LINE
8
0
10
81
20
-80
11
81
21
-94
0
LINE
8
0
10
81
20
-75
11
95
21
-75
0
LINE
8
0
10
95
20
-75
11
95
21
-61
0
LINE
8
0
10
95
20
-61
11
81
21
-61
0
LINE
8
0
10
81
20
-61
11
81
21
-75
0
LINE
8
0
10
100
20
-129
11
114
21
-129
0
LINE
8
0
10
114
20
-129
11
114
21
-115
0
LINE
8
0
10
114
20
-115
11
100
21
-115
0
LINE
8
0
10
100
20
-115
11
100
21
-129
0
LINE
8
0
10
100
20
-110
11
114
21
-110
0
LINE
8
0
10
114
20
-110
11
114
21
-96
0
LINE
8
0
10
114
20
-96
11
100
21
-96
0
LINE
8
0
10
100
20
-96
11
100
21
-110
0
LINE
8
0
10
100
20
-91
11
114
21
-91
0
LINE
8
0
10
114
20
-91
11
114
21
-77
0
LINE
8
0
10
114
20
-77
11
100
21
-77
0
LINE
8
0
10
100
20
-77
11
100
21
-91
0
LINE
8
0
10
100
20
-72
11
114
21
-72
0
LINE
8
0
10
114
20
-72
11
114
21
-58
0
LINE
8
0
10
114
20
-58
11
100
21
-58
0
LINE
8
0
10
100
20
-58
11
100
21
-72
0
LINE
8
0
10
119
20
-133
11
133
21
-133
0
LINE
8
0
10
133
20
-133
11
133
21
-119
0
LINE
8
0
10
133
20
-119
11
119
21
-119
0
LINE
8
0
10
119
20
-119
11
119
21
-133
0
LINE
8
0
10
119
20
-114
11
133
21
-114
0
LINE
8
0
10
133
20
-114
11
133
21
-100
0
LINE
8
0
10
133
20
-100
11
119
21
-100
0
LINE
8
0
10
119
20
-100
11
119
21
-114
0
LINE
8
0
10
119
20
-95
11
133
21
-95
0
LINE
8
0
10
133
20
-95
11
133
21
-81
0
LINE
8
0
10
133
20
-81
11
119
21
-81
0
LINE
8
0
10
119
20
-81
11
119
21
-95
0
LINE
8
0
10
119
20
-76
11
133
21
-76
0
LINE
8
0
10
133
20
-76
11
133
21
-62
0
LINE
8
0
10
133
20
-62
11
119
21
-62
0
LINE
8
0
10
119
20
-62
11
119
21
-76
0
LINE
8
0
10
138
20
-136
11
152
21
-136
0
LINE
8
0
10
152
20
-136
11
152
21
-122
0
LINE
8
0
10
152
20
-122
11
138
21
-122
0
LINE
8
0
10
138
20
-122
11
138
21
-136
0
LINE
8
0
10
138
20
-117
11
152
21
-117
0
LINE
8
0
10
152
20
-117
11
152
21
-103
0
LINE
8
0
10
152
20
-103
11
138
21
-103
0
LINE
8
0
10
138
20
-103
11
138
21
-117
0
LINE
8
0
10
138
20
-98
11
152
21
-98
0
LINE
8
0
10
152
20
-98
11
152
21
-84
0
LINE
8
0
10
152
20
-84
11
138
21
-84
0
LINE
8
0
10
138
20
-84
11
138
21
-98
0
LINE
8
0
10
138
20
-79
11
152
21
-79
0
LINE
8
0
10
152
20
-79
11
152
21
-65
0
LINE
8
0
10
152
20
-65
11
138
21
-65
0
LINE
8
0
10
138
20
-65
11
138
21
-79
0
LINE
8
0
10
112.5
20
-157
11
112.5
21
-142
0
LINE
8
0
10
117.5
20
-155.5
11
131.5
21
-155.5
0
LINE
8
0
10
131.5
20
-155.5
11
131.5
21
-141.5
0
LINE
8
0
10
131.5
20
-141.5
11
117.5
21
-141.5
0
LINE
8
0
10
117.5
20
-141.5
11
117.5
21
-155.5
0
LINE
8
0
10
137.3908085
20
-156.178117
11
151.178117
21
-158.6091915
0
LINE
8
0
10
151.178117
20
-158.6091915
11
153.6091915
21
-144.821883
0
LINE
8
0
10
153.6091915
20
-144.821883
11
139.821883
21
-142.3908085
0
LINE
8
0
10
139.821883
20
-142.3908085
11
137.3908085
21
-156.178117
0
LINE
8
0
10
157.0131519
20
-160.6105039
11
170.3279432
21
-164.9367418
0
LINE
8
0
10
170.3279432
20
-164.9367418
11
174.6541811
21
-151.6219505
0
LINE
8
0
10
174.6541811
20
-151.6219505
11
161.3393898
21
-147.2957126
0
LINE
8
0
10
161.3393898
20
-147.2957126
11
157.0131519
21
-160.6105039
0
LINE
8
0
10
158
20
-128.9
11
176
21
-128.9
0
LINE
8
0
10
176
20
-128.9
11
176
21
-113.9
0
LINE
8
0
10
176
20
-113.9
11
158
21
-113.9
0
LINE
8
0
10
158
20
-113.9
11
158
21
-128.9
0
LINE
8
0
10
156.5
20
-62.9010198
11
156.5
21
-110.5
0
LINE
8
0
10
158.5
20
-112.5
11
175.5
21
-112.5
0
ARC
8
0
10
158.5
20
-110.5
40
2
50
180
51
270
0
ARC
8
0
10
175.5
20
-110.5
40
2
50
270
51
331.0449765
0
LINE
8
0
10
94.5
20
-157
11
112.5
21
-157
0
LINE
8
0
10
112.5
20
-142
11
94.5
21
-142
0
LINE
8
0
10
94.5
20
-142
11
94.5
21
-157
0
ENDSEC
0
EOF