0
SECTION
2
HEADER
9
$INSUNITS
70
4
0
ENDSEC
0
SECTION
2
TABLES
0
TABLE
2
LTYPE
0
LTYPE
72
65
70
64
2
CONTINUOUS
3
______
73
0
40
0
0
ENDTAB
0
TABLE
2
LAYER
0
ENDTAB
0
ENDSEC
0
SECTION
2
ENTITIES
0
LINE
8
0
10
39.5
20
-140.51
11
39.5
21
-64.24
0
LINE
8
0
10
40.49
20
-63.25
11
76.51
21
-63.25
0
LINE
8
0
10
77.5
20
-62.26
11
77.5
21
-61.49
0
LINE
8
0
10
78.49
20
-60.5
11
95.51
21
-60.5
0
LINE
8
0
10
96.5
20
-59.51
11
96.5
21
-57.99
0
LINE
8
0
10
97.49
20
-57
11
116.51
21
-57
0
LINE
8
0
10
117.5
20
-57.99
11
117.5
21
-59.26
0
LINE
8
0
10
118.49
20
-60.25
11
135.51
21
-60.25
0
LINE
8
0
10
136.5
20
-61.24
11
136.5
21
-63.01
0
LINE
8
0
10
137.49
20
-64
11
177.26
21
-64
0
LINE
8
0
10
178.25
20
-106.9133056
11
178.25
21
-64.99
0
LINE
8
0
10
178.265068
20
-107.0853745
11
184.8570142
21
-144.4349665
0
LINE
8
0
10
184.7394473
20
-145.1020353
11
173.6787371
21
-164.2597473
0
LINE
8
0
10
172.9032756
20
-164.7513535
11
149.5501662
21
-166.6900229
0
LINE
8
0
10
149.3806044
20
-166.6895283
11
113.5437426
21
-163.5038884
0
LINE
8
0
10
92.0434564
20
-163.5
11
113.4560844
21
-163.5
0
LINE
8
0
10
91.2082316
20
-163.0415067
11
77.7917684
21
-141.9584933
0
LINE
8
0
10
40.49
20
-141.5
11
76.9565436
21
-141.5
0
ARC
8
0
10
40.49
20
-64.24
40
0.99
50
90
51
180
0
ARC
8
0
10
76.51
20
-62.26
40
0.99
50
270
51
0
0
ARC
8
0
10
78.49
20
-61.49
40
0.99
50
90
51
180
0
ARC
8
0
10
95.51
20
-59.51
40
0.99
50
270
51
0
0
ARC
8
0
10
97.49
20
-57.99
40
0.99
50
90
51
180
0
ARC
8
0
10
116.51
20
-57.99
40
0.99
50
0
51
90
0
ARC
8
0
10
118.49
20
-59.26
40
0.99
50
180
51
270
0
ARC
8
0
10
135.51
20
-61.24
40
0.99
50
0
51
90
0
ARC
8
0
10
137.49
20
-63.01
40
0.99
50
180
51
270
0
ARC
8
0
10
177.26
20
-64.99
40
0.99
50
0
51
90
0
ARC
8
0
10
179.24
20
-106.9133056
40
0.99
50
180
51
190.0092341
0
ARC
8
0
10
183.8820822
20
-144.6070353
40
0.99
50
329.9999999
51
10.0092341
0
ARC
8
0
10
172.821372
20
-163.7647473
40
0.99
50
274.7455555
51
329.9999999
0
ARC
8
0
10
149.4682626
20
-165.7034167
40
0.99
50
264.9201673
51
274.7455555
0
ARC
8
0
10
113.4560844
20
-164.49
40
0.99
50
84.9201673
51
90
0
ARC
8
0
10
92.0434564
20
-162.51
40
0.99
50
212.4711923
51
270
0
ARC
8
0
10
76.9565436
20
-142.49
40
0.99
50
32.4711923
51
90
0
ARC
8
0
10
40.49
20
-140.51
40
0.99
50
180
51
270
0
ENDSEC
0
EOF