0
SECTION
2
HEADER
9
$INSUNITS
70
4
0
ENDSEC
0
SECTION
2
TABLES
0
TABLE
2
LTYPE
0
LTYPE
72
65
70
64
2
CONTINUOUS
3
______
73
0
40
0
0
ENDTAB
0
TABLE
2
LAYER
0
ENDTAB
0
ENDSEC
0
SECTION
2
ENTITIES
0
LINE
8
0
10
39.5
20
-140.51
11
39.5
21
-64.24
0
LINE
8
0
10
40.49
20
-63.25
11
76.51
21
-63.25
0
LINE
8
0
10
77.5
20
-62.26
11
77.5
21
-61.49
0
LINE
8
0
10
78.49
20
-60.5
11
95.51
21
-60.5
0
LINE
8
0
10
96.5
20
-59.51
11
96.5
21
-57.99
0
LINE
8
0
10
97.49
20
-57
11
116.51
21
-57
0
LINE
8
0
10
117.5
20
-57.99
11
117.5
21
-59.26
0
LINE
8
0
10
118.49
20
-60.25
11
135.51
21
-60.25
0
LINE
8
0
10
136.5
20
-61.24
11
136.5
21
-63.01
0
LINE
8
0
10
137.49
20
-64
11
177.26
21
-64
0
LINE
8
0
10
178.25
20
-106.9830448
11
178.25
21
-64.99
0
LINE
8
0
10
178.2494193
20
-107.0169473
11
176.9951097
21
-143.6229945
0
LINE
8
0
10
176.8630556
20
-144.084092
11
165.8061527
21
-163.2352094
0
LINE
8
0
10
164.8507697
20
-163.7253452
11
144.4705418
21
-161.697578
0
LINE
8
0
10
144.4601822
20
-161.6966022
11
108.5437426
21
-158.5038884
0
LINE
8
0
10
87.0960605
20
-158.5
11
108.4560844
21
-158.5
0
LINE
8
0
10
86.2211105
20
-157.9732088
11
77.7788895
21
-142.0267912
0
LINE
8
0
10
40.49
20
-141.5
11
76.9039395
21
-141.5
0
ARC
8
0
10
40.49
20
-64.24
40
0.99
50
90
51
180
0
ARC
8
0
10
76.51
20
-62.26
40
0.99
50
270
51
0
0
ARC
8
0
10
78.49
20
-61.49
40
0.99
50
90
51
180
0
ARC
8
0
10
95.51
20
-59.51
40
0.99
50
270
51
0
0
ARC
8
0
10
97.49
20
-57.99
40
0.99
50
90
51
180
0
ARC
8
0
10
116.51
20
-57.99
40
0.99
50
0
51
90
0
ARC
8
0
10
118.49
20
-59.26
40
0.99
50
180
51
270
0
ARC
8
0
10
135.51
20
-61.24
40
0.99
50
0
51
90
0
ARC
8
0
10
137.49
20
-63.01
40
0.99
50
180
51
270
0
ARC
8
0
10
177.26
20
-64.99
40
0.99
50
0
51
90
0
ARC
8
0
10
177.26
20
-106.9830448
40
0.99
50
358.0375224
51
0
0
ARC
8
0
10
176.0056904
20
-143.589092
40
0.99
50
329.9999999
51
358.0375224
0
ARC
8
0
10
164.9487876
20
-162.7402094
40
0.99
50
264.3179559
51
329.9999999
0
ARC
8
0
10
144.372524
20
-162.6827138
40
0.99
50
84.3179559
51
84.9201673
0
ARC
8
0
10
108.4560844
20
-159.49
40
0.99
50
84.9201673
51
90
0
ARC
8
0
10
87.0960605
20
-157.51
40
0.99
50
207.8972704
51
270
0
ARC
8
0
10
76.9039395
20
-142.49
40
0.99
50
27.8972704
51
90
0
ARC
8
0
10
40.49
20
-140.51
40
0.99
50
180
51
270
0
ENDSEC
0
EOF