0
SECTION
2
HEADER
9
$INSUNITS
70
4
0
ENDSEC
0
SECTION
2
TABLES
0
TABLE
2
LTYPE
0
LTYPE
72
65
70
64
2
CONTINUOUS
3
______
73
0
40
0
0
ENDTAB
0
TABLE
2
LAYER
0
ENDTAB
0
ENDSEC
0
SECTION
2
ENTITIES
0
LINE
8
0
10
345.5
20
-139.5
11
345.5
21
-65.25
0
LINE
8
0
10
309.5
20
-63.25
11
343.5
21
-63.25
0
LINE
8
0
10
307.5
20
-61.25
11
307.5
21
-60.5
0
LINE
8
0
10
307.5
20
-60.5
11
290.5
21
-60.5
0
LINE
8
0
10
288.5
20
-58.5
11
288.5
21
-57
0
LINE
8
0
10
288.5
20
-57
11
269.5
21
-57
0
LINE
8
0
10
267.5
20
-59
11
267.5
21
-60.25
0
LINE
8
0
10
267.5
20
-60.25
11
250.5
21
-60.25
0
LINE
8
0
10
248.5
20
-62.25
11
248.5
21
-64
0
LINE
8
0
10
248.5
20
-64
11
208.75
21
-64
0
LINE
8
0
10
206.75
20
-106.965746
11
206.75
21
-66
0
LINE
8
0
10
206.7511731
20
-107.034236
11
207.9962546
21
-143.3709698
0
LINE
8
0
10
208.2630307
20
-144.3024798
11
218.8678851
21
-162.6706262
0
LINE
8
0
10
220.7979517
20
-163.6607995
11
240.5241772
21
-161.6981034
0
LINE
8
0
10
240.5451056
20
-161.6961321
11
276.4116307
21
-158.5078554
0
LINE
8
0
10
276.5887181
20
-158.5
11
297.2958372
21
-158.5
0
LINE
8
0
10
299.063413
20
-157.4357754
11
306.936587
21
-142.5642246
0
LINE
8
0
10
308.7041628
20
-141.5
11
343.5
21
-141.5
0
ARC
8
0
10
343.5
20
-65.25
40
2
50
0
51
90
0
ARC
8
0
10
309.5
20
-61.25
40
2
50
180
51
270
0
ARC
8
0
10
290.5
20
-58.5
40
2
50
180
51
270
0
ARC
8
0
10
269.5
20
-59
40
2
50
90
51
180
0
ARC
8
0
10
250.5
20
-62.25
40
2
50
90
51
180
0
ARC
8
0
10
208.75
20
-66
40
2
50
90
51
180
0
ARC
8
0
10
208.75
20
-106.965746
40
2
50
180
51
181.9624776
0
ARC
8
0
10
209.9950815
20
-143.3024798
40
2
50
181.9624776
51
210.0000001
0
ARC
8
0
10
220.5999359
20
-161.6706262
40
2
50
210.0000001
51
275.6820441
0
ARC
8
0
10
240.722193
20
-163.6882767
40
2
50
95.0798327
51
95.6820441
0
ARC
8
0
10
276.5887181
20
-160.5
40
2
50
90
51
95.0798327
0
ARC
8
0
10
297.2958372
20
-156.5
40
2
50
270
51
332.1027296
0
ARC
8
0
10
308.7041628
20
-143.5
40
2
50
90
51
152.1027296
0
ARC
8
0
10
343.5
20
-139.5
40
2
50
270
51
0
0
ENDSEC
0
EOF