0
SECTION
2
HEADER
9
$INSUNITS
70
4
0
ENDSEC
0
SECTION
2
TABLES
0
TABLE
2
LTYPE
0
LTYPE
72
65
70
64
2
CONTINUOUS
3
______
73
0
40
0
0
ENDTAB
0
TABLE
2
LAYER
0
ENDTAB
0
ENDSEC
0
SECTION
2
ENTITIES
0
LINE
8
0
10
39.5
20
-140.8321251
11
39.5
21
-64.49
0
LINE
8
0
10
40.49
20
-63.5
11
58.4351475
21
-63.5
0
LINE
8
0
10
58.5642975
20
-63.4915398
11
77.4873536
21
-61.001664
0
LINE
8
0
10
77.5126066
20
-60.9980095
11
96.4232735
21
-58.0121147
0
LINE
8
0
10
96.5776765
20
-58
11
117.4351475
21
-58
0
LINE
8
0
10
117.5642975
20
-58.0084602
11
136.4791797
21
-60.4972605
0
LINE
8
0
10
136.5206862
20
-60.5036201
11
156.4153154
21
-63.9851802
0
LINE
8
0
10
156.5859719
20
-64
11
177.26
21
-64
0
LINE
8
0
10
178.25
20
-141.8502388
11
178.25
21
-64.99
0
LINE
8
0
10
178.2057038
20
-142.1430601
11
169.2117865
21
-171.1900594
0
LINE
8
0
10
167.9274828
20
-171.8275338
11
165.204311
21
-170.8363803
0
LINE
8
0
10
165.0845569
20
-170.8011676
11
149.1612804
21
-167.1919371
0
LINE
8
0
10
149.0714607
20
-167.1758895
11
113.5642371
21
-162.508444
0
LINE
8
0
10
91.6923569
20
-162.5
11
113.435211
21
-162.5
0
LINE
8
0
10
91.3216385
20
-162.4279694
11
40.1192816
21
-141.7500945
0
ARC
8
0
10
40.49
20
-64.49
40
0.99
50
90
51
180
0
ARC
8
0
10
58.4351475
20
-62.51
40
0.99
50
270
51
277.4958569
0
ARC
8
0
10
77.3582036
20
-60.0201242
40
0.99
50
277.4958569
51
278.9726278
0
ARC
8
0
10
96.5776765
20
-58.99
40
0.99
50
90
51
98.9726278
0
ARC
8
0
10
117.4351475
20
-58.99
40
0.99
50
82.5041431
51
90
0
ARC
8
0
10
136.3500297
20
-61.4788003
40
0.99
50
80.0737566
51
82.5041431
0
ARC
8
0
10
156.5859719
20
-63.01
40
0.99
50
260.0737566
51
270
0
ARC
8
0
10
177.26
20
-64.99
40
0.99
50
0
51
90
0
ARC
8
0
10
177.26
20
-141.8502388
40
0.99
50
342.7957391
51
0
0
ARC
8
0
10
168.2660827
20
-170.8972381
40
0.99
50
250.0000019
51
342.7957391
0
ARC
8
0
10
164.8657111
20
-171.766676
40
0.99
50
70.0000019
51
77.2289117
0
ARC
8
0
10
148.9424346
20
-168.1574455
40
0.99
50
77.2289117
51
82.5113721
0
ARC
8
0
10
113.435211
20
-163.49
40
0.99
50
82.5113721
51
90
0
ARC
8
0
10
91.6923569
20
-161.51
40
0.99
50
248.0088719
51
270
0
ARC
8
0
10
40.49
20
-140.8321251
40
0.99
50
180
51
248.0088719
0
ENDSEC
0
EOF