0
SECTION
2
HEADER
9
$INSUNITS
70
4
0
ENDSEC
0
SECTION
2
TABLES
0
TABLE
2
LTYPE
0
LTYPE
72
65
70
64
2
CONTINUOUS
3
______
73
0
40
0
0
ENDTAB
0
TABLE
2
LAYER
0
ENDTAB
0
ENDSEC
0
SECTION
2
ENTITIES
0
LINE
8
0
10
39.5
20
-140.51
11
39.5
21
-64.24
0
LINE
8
0
10
40.49
20
-63.25
11
76.51
21
-63.25
0
LINE
8
0
10
77.5
20
-62.26
11
77.5
21
-61.49
0
LINE
8
0
10
78.49
20
-60.5
11
95.51
21
-60.5
0
LINE
8
0
10
96.5
20
-59.51
11
96.5
21
-57.99
0
LINE
8
0
10
97.49
20
-57
11
116.51
21
-57
0
LINE
8
0
10
117.5
20
-57.99
11
117.5
21
-59.26
0
LINE
8
0
10
118.49
20
-60.25
11
135.51
21
-60.25
0
LINE
8
0
10
136.5
20
-61.24
11
136.5
21
-63.01
0
LINE
8
0
10
137.49
20
-64
11
176.6481464
21
-64
0
LINE
8
0
10
177.5336293
20
-65.4327415
11
159.8783572
21
-100.7432856
0
LINE
8
0
10
160.6448666
20
-102.1688523
11
177.5128276
21
-104.2107633
0
LINE
8
0
10
178.37069
20
-105.0326803
11
184.8621172
21
-144.4405863
0
LINE
8
0
10
184.7426463
20
-145.0964945
11
173.6787371
21
-164.2597473
0
LINE
8
0
10
172.9032756
20
-164.7513535
11
149.5364421
21
-166.6911622
0
LINE
8
0
10
149.3941737
20
-166.6927139
11
113.5301547
21
-164.5018421
0
LINE
8
0
10
92.0563725
20
-164.5
11
113.4697898
21
-164.5
0
LINE
8
0
10
91.2107158
20
-164.0247474
11
77.7892842
21
-141.9752526
0
LINE
8
0
10
40.49
20
-141.5
11
76.9436275
21
-141.5
0
ARC
8
0
10
40.49
20
-64.24
40
0.99
50
90
51
180
0
ARC
8
0
10
76.51
20
-62.26
40
0.99
50
270
51
0
0
ARC
8
0
10
78.49
20
-61.49
40
0.99
50
90
51
180
0
ARC
8
0
10
95.51
20
-59.51
40
0.99
50
270
51
0
0
ARC
8
0
10
97.49
20
-57.99
40
0.99
50
90
51
180
0
ARC
8
0
10
116.51
20
-57.99
40
0.99
50
0
51
90
0
ARC
8
0
10
118.49
20
-59.26
40
0.99
50
180
51
270
0
ARC
8
0
10
135.51
20
-61.24
40
0.99
50
0
51
90
0
ARC
8
0
10
137.49
20
-63.01
40
0.99
50
180
51
270
0
ARC
8
0
10
176.6481464
20
-64.99
40
0.99
50
333.4349488
51
90
0
ARC
8
0
10
160.7638401
20
-101.1860271
40
0.99
50
153.4349488
51
263.0977803
0
ARC
8
0
10
177.393854
20
-105.1935885
40
0.99
50
9.3539862
51
83.0977803
0
ARC
8
0
10
183.8852812
20
-144.6014945
40
0.99
50
329.9999999
51
9.3539862
0
ARC
8
0
10
172.821372
20
-163.7647473
40
0.99
50
274.7455555
51
329.9999999
0
ARC
8
0
10
149.4545385
20
-165.704556
40
0.99
50
266.5042443
51
274.7455555
0
ARC
8
0
10
113.4697898
20
-165.49
40
0.99
50
86.5042443
51
90
0
ARC
8
0
10
92.0563725
20
-163.51
40
0.99
50
211.3286893
51
270
0
ARC
8
0
10
76.9436275
20
-142.49
40
0.99
50
31.3286893
51
90
0
ARC
8
0
10
40.49
20
-140.51
40
0.99
50
180
51
270
0
ENDSEC
0
EOF