0
SECTION
2
HEADER
9
$INSUNITS
70
4
0
ENDSEC
0
SECTION
2
TABLES
0
TABLE
2
LTYPE
0
LTYPE
72
65
70
64
2
CONTINUOUS
3
______
73
0
40
0
0
ENDTAB
0
TABLE
2
LAYER
0
ENDTAB
0
ENDSEC
0
SECTION
2
ENTITIES
0
LINE
8
0
10
39.5
20
-140.51
11
39.5
21
-64.24
0
LINE
8
0
10
40.49
20
-63.25
11
76.51
21
-63.25
0
LINE
8
0
10
77.5
20
-62.26
11
77.5
21
-61.49
0
LINE
8
0
10
78.49
20
-60.5
11
95.51
21
-60.5
0
LINE
8
0
10
96.5
20
-59.51
11
96.5
21
-57.99
0
LINE
8
0
10
97.49
20
-57
11
116.51
21
-57
0
LINE
8
0
10
117.5
20
-57.99
11
117.5
21
-59.26
0
LINE
8
0
10
118.49
20
-60.25
11
135.51
21
-60.25
0
LINE
8
0
10
136.5
20
-61.24
11
136.5
21
-63.01
0
LINE
8
0
10
137.49
20
-64
11
157
21
-64
0
LINE
8
0
10
175.7717391
20
-104
11
177.5128276
21
-104.2107633
0
LINE
8
0
10
178.37069
20
-105.0326803
11
184.8621172
21
-144.4405863
0
LINE
8
0
10
184.7426463
20
-145.0964945
11
173.6787371
21
-164.2597473
0
LINE
8
0
10
172.9032756
20
-164.7513535
11
149.5364421
21
-166.6911622
0
LINE
8
0
10
149.3941737
20
-166.6927139
11
113.5301547
21
-164.5018421
0
LINE
8
0
10
92.0563725
20
-164.5
11
113.4697898
21
-164.5
0
LINE
8
0
10
91.2107158
20
-164.0247474
11
77.7892842
21
-141.9752526
0
LINE
8
0
10
40.49
20
-141.5
11
76.9436275
21
-141.5
0
ARC
8
0
10
40.49
20
-64.24
40
0.99
50
90
51
180
0
ARC
8
0
10
76.51
20
-62.26
40
0.99
50
270
51
0
0
ARC
8
0
10
78.49
20
-61.49
40
0.99
50
90
51
180
0
ARC
8
0
10
95.51
20
-59.51
40
0.99
50
270
51
0
0
ARC
8
0
10
97.49
20
-57.99
40
0.99
50
90
51
180
0
ARC
8
0
10
116.51
20
-57.99
40
0.99
50
0
51
90
0
ARC
8
0
10
118.49
20
-59.26
40
0.99
50
180
51
270
0
ARC
8
0
10
135.51
20
-61.24
40
0.99
50
0
51
90
0
ARC
8
0
10
137.49
20
-63.01
40
0.99
50
180
51
270
0
ARC
8
0
10
177.393854
20
-105.1935885
40
0.99
50
9.3539862
51
83.0977803
0
ARC
8
0
10
183.8852812
20
-144.6014945
40
0.99
50
329.9999999
51
9.3539862
0
ARC
8
0
10
172.821372
20
-163.7647473
40
0.99
50
274.7455555
51
329.9999999
0
ARC
8
0
10
149.4545385
20
-165.704556
40
0.99
50
266.5042443
51
274.7455555
0
ARC
8
0
10
113.4697898
20
-165.49
40
0.99
50
86.5042443
51
90
0
ARC
8
0
10
92.0563725
20
-163.51
40
0.99
50
211.3286893
51
270
0
ARC
8
0
10
76.9436275
20
-142.49
40
0.99
50
31.3286893
51
90
0
ARC
8
0
10
40.49
20
-140.51
40
0.99
50
180
51
270
0
LINE
8
0
10
43
20
-138
11
57
21
-138
0
LINE
8
0
10
57
20
-138
11
57
21
-124
0
LINE
8
0
10
57
20
-124
11
43
21
-124
0
LINE
8
0
10
43
20
-124
11
43
21
-138
0
LINE
8
0
10
43
20
-119
11
57
21
-119
0
LINE
8
0
10
57
20
-119
11
57
21
-105
0
LINE
8
0
10
57
20
-105
11
43
21
-105
0
LINE
8
0
10
43
20
-105
11
43
21
-119
0
LINE
8
0
10
43
20
-100
11
57
21
-100
0
LINE
8
0
10
57
20
-100
11
57
21
-86
0
LINE
8
0
10
57
20
-86
11
43
21
-86
0
LINE
8
0
10
43
20
-86
11
43
21
-100
0
LINE
8
0
10
43
20
-81
11
57
21
-81
0
LINE
8
0
10
57
20
-81
11
57
21
-67
0
LINE
8
0
10
57
20
-67
11
43
21
-67
0
LINE
8
0
10
43
20
-67
11
43
21
-81
0
LINE
8
0
10
62
20
-138
11
76
21
-138
0
LINE
8
0
10
76
20
-138
11
76
21
-124
0
LINE
8
0
10
76
20
-124
11
62
21
-124
0
LINE
8
0
10
62
20
-124
11
62
21
-138
0
LINE
8
0
10
62
20
-119
11
76
21
-119
0
LINE
8
0
10
76
20
-119
11
76
21
-105
0
LINE
8
0
10
76
20
-105
11
62
21
-105
0
LINE
8
0
10
62
20
-105
11
62
21
-119
0
LINE
8
0
10
62
20
-100
11
76
21
-100
0
LINE
8
0
10
76
20
-100
11
76
21
-86
0
LINE
8
0
10
76
20
-86
11
62
21
-86
0
LINE
8
0
10
62
20
-86
11
62
21
-100
0
LINE
8
0
10
62
20
-81
11
76
21
-81
0
LINE
8
0
10
76
20
-81
11
76
21
-67
0
LINE
8
0
10
76
20
-67
11
62
21
-67
0
LINE
8
0
10
62
20
-67
11
62
21
-81
0
LINE
8
0
10
81
20
-135.5
11
95
21
-135.5
0
LINE
8
0
10
95
20
-135.5
11
95
21
-121.5
0
LINE
8
0
10
95
20
-121.5
11
81
21
-121.5
0
LINE
8
0
10
81
20
-121.5
11
81
21
-135.5
0
LINE
8
0
10
81
20
-116.5
11
95
21
-116.5
0
LINE
8
0
10
95
20
-116.5
11
95
21
-102.5
0
LINE
8
0
10
95
20
-102.5
11
81
21
-102.5
0
LINE
8
0
10
81
20
-102.5
11
81
21
-116.5
0
LINE
8
0
10
81
20
-97.5
11
95
21
-97.5
0
LINE
8
0
10
95
20
-97.5
11
95
21
-83.5
0
LINE
8
0
10
95
20
-83.5
11
81
21
-83.5
0
LINE
8
0
10
81
20
-83.5
11
81
21
-97.5
0
LINE
8
0
10
81
20
-78.5
11
95
21
-78.5
0
LINE
8
0
10
95
20
-78.5
11
95
21
-64.5
0
LINE
8
0
10
95
20
-64.5
11
81
21
-64.5
0
LINE
8
0
10
81
20
-64.5
11
81
21
-78.5
0
LINE
8
0
10
100
20
-132.5
11
114
21
-132.5
0
LINE
8
0
10
114
20
-132.5
11
114
21
-118.5
0
LINE
8
0
10
114
20
-118.5
11
100
21
-118.5
0
LINE
8
0
10
100
20
-118.5
11
100
21
-132.5
0
LINE
8
0
10
100
20
-113.5
11
114
21
-113.5
0
LINE
8
0
10
114
20
-113.5
11
114
21
-99.5
0
LINE
8
0
10
114
20
-99.5
11
100
21
-99.5
0
LINE
8
0
10
100
20
-99.5
11
100
21
-113.5
0
LINE
8
0
10
100
20
-94.5
11
114
21
-94.5
0
LINE
8
0
10
114
20
-94.5
11
114
21
-80.5
0
LINE
8
0
10
114
20
-80.5
11
100
21
-80.5
0
LINE
8
0
10
100
20
-80.5
11
100
21
-94.5
0
LINE
8
0
10
100
20
-75.5
11
114
21
-75.5
0
LINE
8
0
10
114
20
-75.5
11
114
21
-61.5
0
LINE
8
0
10
114
20
-61.5
11
100
21
-61.5
0
LINE
8
0
10
100
20
-61.5
11
100
21
-75.5
0
LINE
8
0
10
119
20
-135
11
133
21
-135
0
LINE
8
0
10
133
20
-135
11
133
21
-121
0
LINE
8
0
10
133
20
-121
11
119
21
-121
0
LINE
8
0
10
119
20
-121
11
119
21
-135
0
LINE
8
0
10
119
20
-116
11
133
21
-116
0
LINE
8
0
10
133
20
-116
11
133
21
-102
0
LINE
8
0
10
133
20
-102
11
119
21
-102
0
LINE
8
0
10
119
20
-102
11
119
21
-116
0
LINE
8
0
10
119
20
-97
11
133
21
-97
0
LINE
8
0
10
133
20
-97
11
133
21
-83
0
LINE
8
0
10
133
20
-83
11
119
21
-83
0
LINE
8
0
10
119
20
-83
11
119
21
-97
0
LINE
8
0
10
119
20
-78
11
133
21
-78
0
LINE
8
0
10
133
20
-78
11
133
21
-64
0
LINE
8
0
10
133
20
-64
11
119
21
-64
0
LINE
8
0
10
119
20
-64
11
119
21
-78
0
LINE
8
0
10
138
20
-137.5
11
152
21
-137.5
0
LINE
8
0
10
152
20
-137.5
11
152
21
-123.5
0
LINE
8
0
10
152
20
-123.5
11
138
21
-123.5
0
LINE
8
0
10
138
20
-123.5
11
138
21
-137.5
0
LINE
8
0
10
138
20
-118.5
11
152
21
-118.5
0
LINE
8
0
10
152
20
-118.5
11
152
21
-104.5
0
LINE
8
0
10
152
20
-104.5
11
138
21
-104.5
0
LINE
8
0
10
138
20
-104.5
11
138
21
-118.5
0
LINE
8
0
10
138
20
-99.5
11
152
21
-99.5
0
LINE
8
0
10
152
20
-99.5
11
152
21
-85.5
0
LINE
8
0
10
152
20
-85.5
11
138
21
-85.5
0
LINE
8
0
10
138
20
-85.5
11
138
21
-99.5
0
LINE
8
0
10
138
20
-80.5
11
152
21
-80.5
0
LINE
8
0
10
152
20
-80.5
11
152
21
-66.5
0
LINE
8
0
10
152
20
-66.5
11
138
21
-66.5
0
LINE
8
0
10
138
20
-66.5
11
138
21
-80.5
0
LINE
8
0
10
110
20
-160.5
11
110
21
-145.5
0
LINE
8
0
10
115
20
-159
11
129
21
-159
0
LINE
8
0
10
129
20
-159
11
129
21
-145
0
LINE
8
0
10
129
20
-145
11
115
21
-145
0
LINE
8
0
10
115
20
-145
11
115
21
-159
0
LINE
8
0
10
134.4165469
20
-160.8632727
11
148.3632727
21
-162.0834531
0
LINE
8
0
10
148.3632727
20
-162.0834531
11
149.5834531
21
-148.1367273
0
LINE
8
0
10
149.5834531
20
-148.1367273
11
135.6367273
21
-146.9165469
0
LINE
8
0
10
135.6367273
20
-146.9165469
11
134.4165469
21
-160.8632727
0
LINE
8
0
10
172.2725435
20
-157.6953461
11
179.2725435
21
-145.5709905
0
LINE
8
0
10
179.2725435
20
-145.5709905
11
167.1481879
21
-138.5709905
0
LINE
8
0
10
167.1481879
20
-138.5709905
11
160.1481879
21
-150.6953461
0
LINE
8
0
10
160.1481879
20
-150.6953461
11
172.2725435
21
-157.6953461
0
LINE
8
0
10
158.5
20
-122
11
176.5
21
-122
0
LINE
8
0
10
176.5
20
-122
11
176.5
21
-107
0
LINE
8
0
10
176.5
20
-107
11
158.5
21
-107
0
LINE
8
0
10
158.5
20
-107
11
158.5
21
-122
0
LINE
8
0
10
157
20
-64
11
157
21
-102
0
LINE
8
0
10
159
20
-104
11
175.7717391
21
-104
0
ARC
8
0
10
159
20
-102
40
2
50
180
51
270
0
LINE
8
0
10
92
20
-160.5
11
110
21
-160.5
0
LINE
8
0
10
110
20
-145.5
11
92
21
-145.5
0
LINE
8
0
10
92
20
-145.5
11
92
21
-160.5
0
ENDSEC
0
EOF