0
SECTION
2
HEADER
9
$INSUNITS
70
4
0
ENDSEC
0
SECTION
2
TABLES
0
TABLE
2
LTYPE
0
LTYPE
72
65
70
64
2
CONTINUOUS
3
______
73
0
40
0
0
ENDTAB
0
TABLE
2
LAYER
0
ENDTAB
0
ENDSEC
0
SECTION
2
ENTITIES
0
LINE
8
0
10
39.5
20
-140.51
11
39.5
21
-64.24
0
LINE
8
0
10
40.49
20
-63.25
11
76.51
21
-63.25
0
LINE
8
0
10
77.5
20
-62.26
11
77.5
21
-61.49
0
LINE
8
0
10
78.49
20
-60.5
11
95.51
21
-60.5
0
LINE
8
0
10
96.5
20
-59.51
11
96.5
21
-57.99
0
LINE
8
0
10
97.49
20
-57
11
116.51
21
-57
0
LINE
8
0
10
117.5
20
-57.99
11
117.5
21
-59.26
0
LINE
8
0
10
118.49
20
-60.25
11
135.7394045
21
-60.25
0
LINE
8
0
10
136.695977
20
-60.9849139
11
137.304023
21
-63.2650861
0
LINE
8
0
10
138.2605955
20
-64
11
155.5790557
21
-64
0
LINE
8
0
10
156.5664734
20
-64.9185421
11
157
21
-70.9090909
0
LINE
8
0
10
176.3589361
20
-103.9675276
11
178.321339
21
-104.193204
0
LINE
8
0
10
179.1966189
20
-105.2332561
11
177.0000751
21
-143.6352338
0
LINE
8
0
10
176.8690557
20
-144.0736995
11
165.8061527
21
-163.2352094
0
LINE
8
0
10
164.8507697
20
-163.7253452
11
144.4841605
21
-161.698933
0
LINE
8
0
10
144.4465075
20
-161.6959109
11
108.5301547
21
-159.5018421
0
LINE
8
0
10
87.1118537
20
-159.5
11
108.4697898
21
-159.5
0
LINE
8
0
10
86.2263707
20
-158.9527415
11
77.7736293
21
-142.0472585
0
LINE
8
0
10
40.49
20
-141.5
11
76.8881464
21
-141.5
0
ARC
8
0
10
40.49
20
-64.24
40
0.99
50
90
51
180
0
ARC
8
0
10
76.51
20
-62.26
40
0.99
50
270
51
0
0
ARC
8
0
10
78.49
20
-61.49
40
0.99
50
90
51
180
0
ARC
8
0
10
95.51
20
-59.51
40
0.99
50
270
51
0
0
ARC
8
0
10
97.49
20
-57.99
40
0.99
50
90
51
180
0
ARC
8
0
10
116.51
20
-57.99
40
0.99
50
0
51
90
0
ARC
8
0
10
118.49
20
-59.26
40
0.99
50
180
51
270
0
ARC
8
0
10
135.7394045
20
-61.24
40
0.99
50
14.9314205
51
90
0
ARC
8
0
10
138.2605955
20
-63.01
40
0.99
50
194.9314205
51
270
0
ARC
8
0
10
155.5790557
20
-64.99
40
0.99
50
4.1391918
51
90
0
ARC
8
0
10
178.2082344
20
-105.1767218
40
0.99
50
356.7263208
51
83.4398051
0
ARC
8
0
10
176.0116906
20
-143.5786995
40
0.99
50
329.9999999
51
356.7263208
0
ARC
8
0
10
164.9487876
20
-162.7402094
40
0.99
50
264.3179559
51
329.9999999
0
ARC
8
0
10
144.3861427
20
-162.6840688
40
0.99
50
84.3179559
51
86.5042443
0
ARC
8
0
10
108.4697898
20
-160.49
40
0.99
50
86.5042443
51
90
0
ARC
8
0
10
87.1118537
20
-158.51
40
0.99
50
206.5650512
51
270
0
ARC
8
0
10
76.8881464
20
-142.49
40
0.99
50
26.5650512
51
90
0
ARC
8
0
10
40.49
20
-140.51
40
0.99
50
180
51
270
0
LINE
8
0
10
43
20
-138
11
57
21
-138
0
LINE
8
0
10
57
20
-138
11
57
21
-124
0
LINE
8
0
10
57
20
-124
11
43
21
-124
0
LINE
8
0
10
43
20
-124
11
43
21
-138
0
LINE
8
0
10
43
20
-119
11
57
21
-119
0
LINE
8
0
10
57
20
-119
11
57
21
-105
0
LINE
8
0
10
57
20
-105
11
43
21
-105
0
LINE
8
0
10
43
20
-105
11
43
21
-119
0
LINE
8
0
10
43
20
-100
11
57
21
-100
0
LINE
8
0
10
57
20
-100
11
57
21
-86
0
LINE
8
0
10
57
20
-86
11
43
21
-86
0
LINE
8
0
10
43
20
-86
11
43
21
-100
0
LINE
8
0
10
43
20
-81
11
57
21
-81
0
LINE
8
0
10
57
20
-81
11
57
21
-67
0
LINE
8
0
10
57
20
-67
11
43
21
-67
0
LINE
8
0
10
43
20
-67
11
43
21
-81
0
LINE
8
0
10
62
20
-138
11
76
21
-138
0
LINE
8
0
10
76
20
-138
11
76
21
-124
0
LINE
8
0
10
76
20
-124
11
62
21
-124
0
LINE
8
0
10
62
20
-124
11
62
21
-138
0
LINE
8
0
10
62
20
-119
11
76
21
-119
0
LINE
8
0
10
76
20
-119
11
76
21
-105
0
LINE
8
0
10
76
20
-105
11
62
21
-105
0
LINE
8
0
10
62
20
-105
11
62
21
-119
0
LINE
8
0
10
62
20
-100
11
76
21
-100
0
LINE
8
0
10
76
20
-100
11
76
21
-86
0
LINE
8
0
10
76
20
-86
11
62
21
-86
0
LINE
8
0
10
62
20
-86
11
62
21
-100
0
LINE
8
0
10
62
20
-81
11
76
21
-81
0
LINE
8
0
10
76
20
-81
11
76
21
-67
0
LINE
8
0
10
76
20
-67
11
62
21
-67
0
LINE
8
0
10
62
20
-67
11
62
21
-81
0
LINE
8
0
10
81
20
-135.5
11
95
21
-135.5
0
LINE
8
0
10
95
20
-135.5
11
95
21
-121.5
0
LINE
8
0
10
95
20
-121.5
11
81
21
-121.5
0
LINE
8
0
10
81
20
-121.5
11
81
21
-135.5
0
LINE
8
0
10
81
20
-116.5
11
95
21
-116.5
0
LINE
8
0
10
95
20
-116.5
11
95
21
-102.5
0
LINE
8
0
10
95
20
-102.5
11
81
21
-102.5
0
LINE
8
0
10
81
20
-102.5
11
81
21
-116.5
0
LINE
8
0
10
81
20
-97.5
11
95
21
-97.5
0
LINE
8
0
10
95
20
-97.5
11
95
21
-83.5
0
LINE
8
0
10
95
20
-83.5
11
81
21
-83.5
0
LINE
8
0
10
81
20
-83.5
11
81
21
-97.5
0
LINE
8
0
10
81
20
-78.5
11
95
21
-78.5
0
LINE
8
0
10
95
20
-78.5
11
95
21
-64.5
0
LINE
8
0
10
95
20
-64.5
11
81
21
-64.5
0
LINE
8
0
10
81
20
-64.5
11
81
21
-78.5
0
LINE
8
0
10
100
20
-132.5
11
114
21
-132.5
0
LINE
8
0
10
114
20
-132.5
11
114
21
-118.5
0
LINE
8
0
10
114
20
-118.5
11
100
21
-118.5
0
LINE
8
0
10
100
20
-118.5
11
100
21
-132.5
0
LINE
8
0
10
100
20
-113.5
11
114
21
-113.5
0
LINE
8
0
10
114
20
-113.5
11
114
21
-99.5
0
LINE
8
0
10
114
20
-99.5
11
100
21
-99.5
0
LINE
8
0
10
100
20
-99.5
11
100
21
-113.5
0
LINE
8
0
10
100
20
-94.5
11
114
21
-94.5
0
LINE
8
0
10
114
20
-94.5
11
114
21
-80.5
0
LINE
8
0
10
114
20
-80.5
11
100
21
-80.5
0
LINE
8
0
10
100
20
-80.5
11
100
21
-94.5
0
LINE
8
0
10
100
20
-75.5
11
114
21
-75.5
0
LINE
8
0
10
114
20
-75.5
11
114
21
-61.5
0
LINE
8
0
10
114
20
-61.5
11
100
21
-61.5
0
LINE
8
0
10
100
20
-61.5
11
100
21
-75.5
0
LINE
8
0
10
119
20
-135
11
133
21
-135
0
LINE
8
0
10
133
20
-135
11
133
21
-121
0
LINE
8
0
10
133
20
-121
11
119
21
-121
0
LINE
8
0
10
119
20
-121
11
119
21
-135
0
LINE
8
0
10
119
20
-116
11
133
21
-116
0
LINE
8
0
10
133
20
-116
11
133
21
-102
0
LINE
8
0
10
133
20
-102
11
119
21
-102
0
LINE
8
0
10
119
20
-102
11
119
21
-116
0
LINE
8
0
10
119
20
-97
11
133
21
-97
0
LINE
8
0
10
133
20
-97
11
133
21
-83
0
LINE
8
0
10
133
20
-83
11
119
21
-83
0
LINE
8
0
10
119
20
-83
11
119
21
-97
0
LINE
8
0
10
119
20
-78
11
133
21
-78
0
LINE
8
0
10
133
20
-78
11
133
21
-64
0
LINE
8
0
10
133
20
-64
11
119
21
-64
0
LINE
8
0
10
119
20
-64
11
119
21
-78
0
LINE
8
0
10
138
20
-137.5
11
152
21
-137.5
0
LINE
8
0
10
152
20
-137.5
11
152
21
-123.5
0
LINE
8
0
10
152
20
-123.5
11
138
21
-123.5
0
LINE
8
0
10
138
20
-123.5
11
138
21
-137.5
0
LINE
8
0
10
138
20
-118.5
11
152
21
-118.5
0
LINE
8
0
10
152
20
-118.5
11
152
21
-104.5
0
LINE
8
0
10
152
20
-104.5
11
138
21
-104.5
0
LINE
8
0
10
138
20
-104.5
11
138
21
-118.5
0
LINE
8
0
10
138
20
-99.5
11
152
21
-99.5
0
LINE
8
0
10
152
20
-99.5
11
152
21
-85.5
0
LINE
8
0
10
152
20
-85.5
11
138
21
-85.5
0
LINE
8
0
10
138
20
-85.5
11
138
21
-99.5
0
LINE
8
0
10
138
20
-80.5
11
152
21
-80.5
0
LINE
8
0
10
152
20
-80.5
11
152
21
-66.5
0
LINE
8
0
10
152
20
-66.5
11
138
21
-66.5
0
LINE
8
0
10
138
20
-66.5
11
138
21
-80.5
0
LINE
8
0
10
105
20
-155.5
11
105
21
-140.5
0
LINE
8
0
10
110
20
-154
11
124
21
-154
0
LINE
8
0
10
124
20
-154
11
124
21
-140
0
LINE
8
0
10
124
20
-140
11
110
21
-140
0
LINE
8
0
10
110
20
-140
11
110
21
-154
0
LINE
8
0
10
129.4165469
20
-155.8632727
11
143.3632727
21
-157.0834531
0
LINE
8
0
10
143.3632727
20
-157.0834531
11
144.5834531
21
-143.1367273
0
LINE
8
0
10
144.5834531
20
-143.1367273
11
130.6367273
21
-141.9165469
0
LINE
8
0
10
130.6367273
20
-141.9165469
11
129.4165469
21
-155.8632727
0
LINE
8
0
10
164.3395308
20
-156.7754731
11
171.3395308
21
-144.6511175
0
LINE
8
0
10
171.3395308
20
-144.6511175
11
159.2151752
21
-137.6511175
0
LINE
8
0
10
159.2151752
20
-137.6511175
11
152.2151752
21
-149.7754731
0
LINE
8
0
10
152.2151752
20
-149.7754731
11
164.3395308
21
-156.7754731
0
LINE
8
0
10
158.5
20
-122
11
176.5
21
-122
0
LINE
8
0
10
176.5
20
-122
11
176.5
21
-107
0
LINE
8
0
10
176.5
20
-107
11
158.5
21
-107
0
LINE
8
0
10
158.5
20
-107
11
158.5
21
-122
0
LINE
8
0
10
157
20
-70.9090909
11
157
21
-102
0
LINE
8
0
10
159
20
-104
11
176
21
-104
0
ARC
8
0
10
159
20
-102
40
2
50
180
51
270
0
ARC
8
0
10
176
20
-102
40
2
50
270
51
280.3387768
0
LINE
8
0
10
87
20
-155.5
11
105
21
-155.5
0
LINE
8
0
10
105
20
-140.5
11
87
21
-140.5
0
LINE
8
0
10
87
20
-140.5
11
87
21
-155.5
0
ENDSEC
0
EOF