0
SECTION
2
HEADER
9
$INSUNITS
70
4
0
ENDSEC
0
SECTION
2
TABLES
0
TABLE
2
LTYPE
0
LTYPE
72
65
70
64
2
CONTINUOUS
3
______
73
0
40
0
0
ENDTAB
0
TABLE
2
LAYER
0
ENDTAB
0
ENDSEC
0
SECTION
2
ENTITIES
0
LINE
8
0
10
39.5
20
-140.51
11
39.5
21
-64.24
0
LINE
8
0
10
40.49
20
-63.25
11
76.51
21
-63.25
0
LINE
8
0
10
77.5
20
-62.26
11
77.5
21
-61.49
0
LINE
8
0
10
78.49
20
-60.5
11
95.51
21
-60.5
0
LINE
8
0
10
96.5
20
-59.51
11
96.5
21
-57.99
0
LINE
8
0
10
97.49
20
-57
11
116.51
21
-57
0
LINE
8
0
10
117.5
20
-57.99
11
117.5
21
-59.26
0
LINE
8
0
10
118.49
20
-60.25
11
135.51
21
-60.25
0
LINE
8
0
10
136.5
20
-61.24
11
136.5
21
-63.01
0
LINE
8
0
10
137.49
20
-64
11
176.6481464
21
-64
0
LINE
8
0
10
177.5336293
20
-65.4327415
11
159.8783572
21
-100.7432856
0
LINE
8
0
10
160.6448666
20
-102.1688523
11
177.3789736
21
-104.19456
0
LINE
8
0
10
178.25
20
-105.1773852
11
178.25
21
-121.8952476
0
LINE
8
0
10
178.2280776
20
-122.1024329
11
167.3443916
21
-172.9566727
0
LINE
8
0
10
165.9579219
20
-173.6467321
11
147.8245306
21
-165.1909928
0
LINE
8
0
10
146.6563247
20
-165.4418017
11
146.3283352
21
-165.8222432
0
LINE
8
0
10
146.3283352
20
-165.8222432
11
127.8995679
21
-161.5632945
0
LINE
8
0
10
127.6788337
20
-161.5378735
11
110.5010887
21
-161.5000024
0
LINE
8
0
10
110.498906
20
-161.5
11
88.0207702
21
-161.5
0
LINE
8
0
10
87.2049687
20
-161.0708635
11
74.0450313
21
-141.9291365
0
LINE
8
0
10
73.2292298
20
-141.5
11
40.49
21
-141.5
0
ARC
8
0
10
40.49
20
-64.24
40
0.99
50
90
51
180
0
ARC
8
0
10
76.51
20
-62.26
40
0.99
50
270
51
0
0
ARC
8
0
10
78.49
20
-61.49
40
0.99
50
90
51
180
0
ARC
8
0
10
95.51
20
-59.51
40
0.99
50
270
51
0
0
ARC
8
0
10
97.49
20
-57.99
40
0.99
50
90
51
180
0
ARC
8
0
10
116.51
20
-57.99
40
0.99
50
0
51
90
0
ARC
8
0
10
118.49
20
-59.26
40
0.99
50
180
51
270
0
ARC
8
0
10
135.51
20
-61.24
40
0.99
50
0
51
90
0
ARC
8
0
10
137.49
20
-63.01
40
0.99
50
180
51
270
0
ARC
8
0
10
176.6481464
20
-64.99
40
0.99
50
333.4349488
51
90
0
ARC
8
0
10
160.7638401
20
-101.1860271
40
0.99
50
153.4349488
51
263.0977803
0
ARC
8
0
10
177.26
20
-105.1773852
40
0.99
50
0
51
83.0977803
0
ARC
8
0
10
177.26
20
-121.8952476
40
0.99
50
347.91995
51
0
0
ARC
8
0
10
166.376314
20
-172.7494874
40
0.99
50
244.9999983
51
347.91995
0
ARC
8
0
10
147.4061385
20
-166.0882375
40
0.99
50
64.9999983
51
139.2344352
0
ARC
8
0
10
127.6766511
20
-162.5278711
40
0.99
50
76.9872127
51
89.8736799
0
ARC
8
0
10
110.498906
20
-162.49
40
0.99
50
89.8736799
51
90
0
ARC
8
0
10
88.0207702
20
-160.51
40
0.99
50
214.5085227
51
270
0
ARC
8
0
10
73.2292298
20
-142.49
40
0.99
50
34.5085227
51
90
0
ARC
8
0
10
40.49
20
-140.51
40
0.99
50
180
51
270
0
ENDSEC
0
EOF