0
SECTION
2
HEADER
9
$INSUNITS
70
4
0
ENDSEC
0
SECTION
2
TABLES
0
TABLE
2
LTYPE
0
LTYPE
72
65
70
64
2
CONTINUOUS
3
______
73
0
40
0
0
ENDTAB
0
TABLE
2
LAYER
0
ENDTAB
0
ENDSEC
0
SECTION
2
ENTITIES
0
LINE
8
0
10
39.5
20
-140.51
11
39.5
21
-64.24
0
LINE
8
0
10
40.49
20
-63.25
11
76.51
21
-63.25
0
LINE
8
0
10
77.5
20
-62.26
11
77.5
21
-61.49
0
LINE
8
0
10
78.49
20
-60.5
11
95.51
21
-60.5
0
LINE
8
0
10
96.5
20
-59.51
11
96.5
21
-57.99
0
LINE
8
0
10
97.49
20
-57
11
116.51
21
-57
0
LINE
8
0
10
117.5
20
-57.99
11
117.5
21
-59.26
0
LINE
8
0
10
118.49
20
-60.25
11
135.51
21
-60.25
0
LINE
8
0
10
136.5
20
-61.24
11
136.5
21
-63.01
0
LINE
8
0
10
137.49
20
-64
11
157
21
-64
0
LINE
8
0
10
175.7717391
20
-104
11
177.3789736
21
-104.19456
0
LINE
8
0
10
178.25
20
-105.1773852
11
178.25
21
-121.8952476
0
LINE
8
0
10
178.2280776
20
-122.1024329
11
176.5
21
-130.1769099
0
LINE
8
0
10
175.2537581
20
-136
11
167.3443916
21
-172.9566727
0
LINE
8
0
10
165.9579219
20
-173.6467321
11
147.8245306
21
-165.1909928
0
LINE
8
0
10
146.6563247
20
-165.4418017
11
146.3283352
21
-165.8222432
0
LINE
8
0
10
146.3283352
20
-165.8222432
11
127.8995679
21
-161.5632945
0
LINE
8
0
10
127.6788337
20
-161.5378735
11
110.5010887
21
-161.5000024
0
LINE
8
0
10
110.498906
20
-161.5
11
88.0207702
21
-161.5
0
LINE
8
0
10
87.2049687
20
-161.0708635
11
74.0450313
21
-141.9291365
0
LINE
8
0
10
73.2292298
20
-141.5
11
40.49
21
-141.5
0
ARC
8
0
10
40.49
20
-64.24
40
0.99
50
90
51
180
0
ARC
8
0
10
76.51
20
-62.26
40
0.99
50
270
51
0
0
ARC
8
0
10
78.49
20
-61.49
40
0.99
50
90
51
180
0
ARC
8
0
10
95.51
20
-59.51
40
0.99
50
270
51
0
0
ARC
8
0
10
97.49
20
-57.99
40
0.99
50
90
51
180
0
ARC
8
0
10
116.51
20
-57.99
40
0.99
50
0
51
90
0
ARC
8
0
10
118.49
20
-59.26
40
0.99
50
180
51
270
0
ARC
8
0
10
135.51
20
-61.24
40
0.99
50
0
51
90
0
ARC
8
0
10
137.49
20
-63.01
40
0.99
50
180
51
270
0
ARC
8
0
10
177.26
20
-105.1773852
40
0.99
50
0
51
83.0977803
0
ARC
8
0
10
177.26
20
-121.8952476
40
0.99
50
347.91995
51
0
0
ARC
8
0
10
166.376314
20
-172.7494874
40
0.99
50
244.9999983
51
347.91995
0
ARC
8
0
10
147.4061385
20
-166.0882375
40
0.99
50
64.9999983
51
139.2344352
0
ARC
8
0
10
127.6766511
20
-162.5278711
40
0.99
50
76.9872127
51
89.8736799
0
ARC
8
0
10
110.498906
20
-162.49
40
0.99
50
89.8736799
51
90
0
ARC
8
0
10
88.0207702
20
-160.51
40
0.99
50
214.5085227
51
270
0
ARC
8
0
10
73.2292298
20
-142.49
40
0.99
50
34.5085227
51
90
0
ARC
8
0
10
40.49
20
-140.51
40
0.99
50
180
51
270
0
LINE
8
0
10
43
20
-138
11
57
21
-138
0
LINE
8
0
10
57
20
-138
11
57
21
-124
0
LINE
8
0
10
57
20
-124
11
43
21
-124
0
LINE
8
0
10
43
20
-124
11
43
21
-138
0
LINE
8
0
10
43
20
-119
11
57
21
-119
0
LINE
8
0
10
57
20
-119
11
57
21
-105
0
LINE
8
0
10
57
20
-105
11
43
21
-105
0
LINE
8
0
10
43
20
-105
11
43
21
-119
0
LINE
8
0
10
43
20
-100
11
57
21
-100
0
LINE
8
0
10
57
20
-100
11
57
21
-86
0
LINE
8
0
10
57
20
-86
11
43
21
-86
0
LINE
8
0
10
43
20
-86
11
43
21
-100
0
LINE
8
0
10
43
20
-81
11
57
21
-81
0
LINE
8
0
10
57
20
-81
11
57
21
-67
0
LINE
8
0
10
57
20
-67
11
43
21
-67
0
LINE
8
0
10
43
20
-67
11
43
21
-81
0
LINE
8
0
10
62
20
-138
11
76
21
-138
0
LINE
8
0
10
76
20
-138
11
76
21
-124
0
LINE
8
0
10
76
20
-124
11
62
21
-124
0
LINE
8
0
10
62
20
-124
11
62
21
-138
0
LINE
8
0
10
62
20
-119
11
76
21
-119
0
LINE
8
0
10
76
20
-119
11
76
21
-105
0
LINE
8
0
10
76
20
-105
11
62
21
-105
0
LINE
8
0
10
62
20
-105
11
62
21
-119
0
LINE
8
0
10
62
20
-100
11
76
21
-100
0
LINE
8
0
10
76
20
-100
11
76
21
-86
0
LINE
8
0
10
76
20
-86
11
62
21
-86
0
LINE
8
0
10
62
20
-86
11
62
21
-100
0
LINE
8
0
10
62
20
-81
11
76
21
-81
0
LINE
8
0
10
76
20
-81
11
76
21
-67
0
LINE
8
0
10
76
20
-67
11
62
21
-67
0
LINE
8
0
10
62
20
-67
11
62
21
-81
0
LINE
8
0
10
81
20
-135.5
11
95
21
-135.5
0
LINE
8
0
10
95
20
-135.5
11
95
21
-121.5
0
LINE
8
0
10
95
20
-121.5
11
81
21
-121.5
0
LINE
8
0
10
81
20
-121.5
11
81
21
-135.5
0
LINE
8
0
10
81
20
-116.5
11
95
21
-116.5
0
LINE
8
0
10
95
20
-116.5
11
95
21
-102.5
0
LINE
8
0
10
95
20
-102.5
11
81
21
-102.5
0
LINE
8
0
10
81
20
-102.5
11
81
21
-116.5
0
LINE
8
0
10
81
20
-97.5
11
95
21
-97.5
0
LINE
8
0
10
95
20
-97.5
11
95
21
-83.5
0
LINE
8
0
10
95
20
-83.5
11
81
21
-83.5
0
LINE
8
0
10
81
20
-83.5
11
81
21
-97.5
0
LINE
8
0
10
81
20
-78.5
11
95
21
-78.5
0
LINE
8
0
10
95
20
-78.5
11
95
21
-64.5
0
LINE
8
0
10
95
20
-64.5
11
81
21
-64.5
0
LINE
8
0
10
81
20
-64.5
11
81
21
-78.5
0
LINE
8
0
10
100
20
-132.5
11
114
21
-132.5
0
LINE
8
0
10
114
20
-132.5
11
114
21
-118.5
0
LINE
8
0
10
114
20
-118.5
11
100
21
-118.5
0
LINE
8
0
10
100
20
-118.5
11
100
21
-132.5
0
LINE
8
0
10
100
20
-113.5
11
114
21
-113.5
0
LINE
8
0
10
114
20
-113.5
11
114
21
-99.5
0
LINE
8
0
10
114
20
-99.5
11
100
21
-99.5
0
LINE
8
0
10
100
20
-99.5
11
100
21
-113.5
0
LINE
8
0
10
100
20
-94.5
11
114
21
-94.5
0
LINE
8
0
10
114
20
-94.5
11
114
21
-80.5
0
LINE
8
0
10
114
20
-80.5
11
100
21
-80.5
0
LINE
8
0
10
100
20
-80.5
11
100
21
-94.5
0
LINE
8
0
10
100
20
-75.5
11
114
21
-75.5
0
LINE
8
0
10
114
20
-75.5
11
114
21
-61.5
0
LINE
8
0
10
114
20
-61.5
11
100
21
-61.5
0
LINE
8
0
10
100
20
-61.5
11
100
21
-75.5
0
LINE
8
0
10
119
20
-135
11
133
21
-135
0
LINE
8
0
10
133
20
-135
11
133
21
-121
0
LINE
8
0
10
133
20
-121
11
119
21
-121
0
LINE
8
0
10
119
20
-121
11
119
21
-135
0
LINE
8
0
10
119
20
-116
11
133
21
-116
0
LINE
8
0
10
133
20
-116
11
133
21
-102
0
LINE
8
0
10
133
20
-102
11
119
21
-102
0
LINE
8
0
10
119
20
-102
11
119
21
-116
0
LINE
8
0
10
119
20
-97
11
133
21
-97
0
LINE
8
0
10
133
20
-97
11
133
21
-83
0
LINE
8
0
10
133
20
-83
11
119
21
-83
0
LINE
8
0
10
119
20
-83
11
119
21
-97
0
LINE
8
0
10
119
20
-78
11
133
21
-78
0
LINE
8
0
10
133
20
-78
11
133
21
-64
0
LINE
8
0
10
133
20
-64
11
119
21
-64
0
LINE
8
0
10
119
20
-64
11
119
21
-78
0
LINE
8
0
10
138
20
-137.5
11
152
21
-137.5
0
LINE
8
0
10
152
20
-137.5
11
152
21
-123.5
0
LINE
8
0
10
152
20
-123.5
11
138
21
-123.5
0
LINE
8
0
10
138
20
-123.5
11
138
21
-137.5
0
LINE
8
0
10
138
20
-118.5
11
152
21
-118.5
0
LINE
8
0
10
152
20
-118.5
11
152
21
-104.5
0
LINE
8
0
10
152
20
-104.5
11
138
21
-104.5
0
LINE
8
0
10
138
20
-104.5
11
138
21
-118.5
0
LINE
8
0
10
138
20
-99.5
11
152
21
-99.5
0
LINE
8
0
10
152
20
-99.5
11
152
21
-85.5
0
LINE
8
0
10
152
20
-85.5
11
138
21
-85.5
0
LINE
8
0
10
138
20
-85.5
11
138
21
-99.5
0
LINE
8
0
10
138
20
-80.5
11
152
21
-80.5
0
LINE
8
0
10
152
20
-80.5
11
152
21
-66.5
0
LINE
8
0
10
152
20
-66.5
11
138
21
-66.5
0
LINE
8
0
10
138
20
-66.5
11
138
21
-80.5
0
LINE
8
0
10
106
20
-158.5
11
106
21
-143.5
0
LINE
8
0
10
112
20
-157
11
126
21
-157
0
LINE
8
0
10
126
20
-157
11
126
21
-143
0
LINE
8
0
10
126
20
-143
11
112
21
-143
0
LINE
8
0
10
112
20
-143
11
112
21
-157
0
LINE
8
0
10
131.8452318
20
-158.6990615
11
145.6325403
21
-161.130136
0
LINE
8
0
10
145.6325403
20
-161.130136
11
148.0636148
21
-147.3428275
0
LINE
8
0
10
148.0636148
20
-147.3428275
11
134.2763063
21
-144.911753
0
LINE
8
0
10
134.2763063
20
-144.911753
11
131.8452318
21
-158.6990615
0
LINE
8
0
10
151.796767
20
-163.1814544
11
164.485076
21
-169.09811
0
LINE
8
0
10
164.485076
20
-169.09811
11
170.4017316
21
-156.409801
0
LINE
8
0
10
170.4017316
20
-156.409801
11
157.7134226
21
-150.4931454
0
LINE
8
0
10
157.7134226
20
-150.4931454
11
151.796767
21
-163.1814544
0
LINE
8
0
10
158.5
20
-136
11
175.2537581
21
-136
0
LINE
8
0
10
176.5
20
-130.1769099
11
176.5
21
-121
0
LINE
8
0
10
176.5
20
-121
11
158.5
21
-121
0
LINE
8
0
10
158.5
20
-121
11
158.5
21
-136
0
LINE
8
0
10
157
20
-64
11
157
21
-102
0
LINE
8
0
10
159
20
-104
11
175.7717391
21
-104
0
ARC
8
0
10
159
20
-102
40
2
50
180
51
270
0
LINE
8
0
10
88
20
-158.5
11
106
21
-158.5
0
LINE
8
0
10
106
20
-143.5
11
88
21
-143.5
0
LINE
8
0
10
88
20
-143.5
11
88
21
-158.5
0
ENDSEC
0
EOF