0
SECTION
2
HEADER
9
$INSUNITS
70
4
0
ENDSEC
0
SECTION
2
TABLES
0
TABLE
2
LTYPE
0
LTYPE
72
65
70
64
2
CONTINUOUS
3
______
73
0
40
0
0
ENDTAB
0
TABLE
2
LAYER
0
ENDTAB
0
ENDSEC
0
SECTION
2
ENTITIES
0
LINE
8
0
10
39.5
20
-141.6516717
11
39.5
21
-65.5
0
LINE
8
0
10
41.5
20
-63.5
11
76.0584816
21
-63.5
0
LINE
8
0
10
77.9558481
20
-62.1324556
11
79.0441519
21
-58.8675444
0
LINE
8
0
10
80.9415184
20
-57.5
11
95.263932
21
-57.5
0
LINE
8
0
10
97.0527864
20
-56.3944272
11
97.9472136
21
-54.6055728
0
LINE
8
0
10
99.736068
20
-53.5
11
114.263932
21
-53.5
0
LINE
8
0
10
116.0527864
20
-54.6055728
11
116.9472136
21
-56.3944272
0
LINE
8
0
10
118.736068
20
-57.5
11
133.263932
21
-57.5
0
LINE
8
0
10
135.0527864
20
-58.6055728
11
135.9472136
21
-60.3944272
0
LINE
8
0
10
137.736068
20
-61.5
11
175.25
21
-61.5
0
LINE
8
0
10
177.25
20
-147.4067281
11
177.25
21
-63.5
0
LINE
8
0
10
177.2586807
20
-147.5928665
11
177.5744695
21
-150.9711917
0
LINE
8
0
10
177.4852632
20
-151.7753641
11
172.67827
21
-166.5697679
0
LINE
8
0
10
170.1288008
20
-167.8440684
11
151.3268936
21
-161.4120492
0
LINE
8
0
10
150.7525306
20
-161.3057161
11
115.0089097
21
-160.0003254
0
LINE
8
0
10
114.9910875
20
-159.9995949
11
93.6546079
21
-159.0297549
0
LINE
8
0
10
92.4899183
20
-158.5886438
11
77.9814792
21
-146.8882897
0
LINE
8
0
10
76.8833792
20
-146.4513194
11
41.342595
21
-143.645468
0
ARC
8
0
10
41.5
20
-65.5
40
2
50
90
51
180
0
ARC
8
0
10
76.0584816
20
-61.5
40
2
50
270
51
341.5650494
0
ARC
8
0
10
80.9415184
20
-59.5
40
2
50
90
51
161.5650494
0
ARC
8
0
10
95.263932
20
-55.5
40
2
50
270
51
333.4349488
0
ARC
8
0
10
99.736068
20
-55.5
40
2
50
90
51
153.4349488
0
ARC
8
0
10
114.263932
20
-55.5
40
2
50
26.5650512
51
90
0
ARC
8
0
10
118.736068
20
-55.5
40
2
50
206.5650512
51
270
0
ARC
8
0
10
133.263932
20
-59.5
40
2
50
26.5650512
51
90
0
ARC
8
0
10
137.736068
20
-59.5
40
2
50
206.5650512
51
270
0
ARC
8
0
10
175.25
20
-63.5
40
2
50
0
51
90
0
ARC
8
0
10
179.25
20
-147.4067281
40
2
50
180
51
185.340201
0
ARC
8
0
10
175.5831502
20
-151.1573301
40
2
50
341.9999994
51
5.340201
0
ARC
8
0
10
170.776157
20
-165.9517339
40
2
50
251.1144934
51
341.9999994
0
ARC
8
0
10
150.6795374
20
-163.3043837
40
2
50
71.1144934
51
87.9084344
0
ARC
8
0
10
115.0819029
20
-158.0016578
40
2
50
267.3974355
51
267.9084344
0
ARC
8
0
10
93.7454234
20
-157.0318178
40
2
50
231.1155
51
267.3974355
0
ARC
8
0
10
76.7259742
20
-148.4451157
40
2
50
51.1155
51
85.4860105
0
ARC
8
0
10
41.5
20
-141.6516717
40
2
50
180
51
265.4860105
0
ENDSEC
0
EOF