0
SECTION
2
HEADER
9
$INSUNITS
70
4
0
ENDSEC
0
SECTION
2
TABLES
0
TABLE
2
LTYPE
0
LTYPE
72
65
70
64
2
CONTINUOUS
3
______
73
0
40
0
0
ENDTAB
0
TABLE
2
LAYER
0
ENDTAB
0
ENDSEC
0
SECTION
2
ENTITIES
0
LINE
8
0
10
39.5
20
-141.6516717
11
39.5
21
-65.5
0
LINE
8
0
10
41.5
20
-63.5
11
76.0584816
21
-63.5
0
LINE
8
0
10
77.9558481
20
-62.1324556
11
79.0441519
21
-58.8675444
0
LINE
8
0
10
80.9415184
20
-57.5
11
95.263932
21
-57.5
0
LINE
8
0
10
97.0527864
20
-56.3944272
11
97.9472136
21
-54.6055728
0
LINE
8
0
10
99.736068
20
-53.5
11
114.263932
21
-53.5
0
LINE
8
0
10
116.0527864
20
-54.6055728
11
116.9472136
21
-56.3944272
0
LINE
8
0
10
118.736068
20
-57.5
11
133.263932
21
-57.5
0
LINE
8
0
10
135.0527864
20
-58.6055728
11
135.9472136
21
-60.3944272
0
LINE
8
0
10
137.736068
20
-61.5
11
175.25
21
-61.5
0
LINE
8
0
10
177.25
20
-147.4647021
11
177.25
21
-63.5
0
LINE
8
0
10
177.2487545
20
-147.5352749
11
177.12282
21
-151.1019784
0
LINE
8
0
10
177.0261785
20
-151.6494396
11
172.17827
21
-166.5697679
0
LINE
8
0
10
169.6288008
20
-167.8440684
11
150.8268936
21
-161.4120492
0
LINE
8
0
10
150.2525306
20
-161.3057161
11
114.5089097
21
-160.0003254
0
LINE
8
0
10
114.4910875
20
-159.9995949
11
93.1724385
21
-159.0305654
0
LINE
8
0
10
91.9828851
20
-158.5690709
11
77.9887401
21
-146.9072834
0
LINE
8
0
10
76.8657763
20
-146.4499297
11
41.342595
21
-143.645468
0
ARC
8
0
10
41.5
20
-65.5
40
2
50
90
51
180
0
ARC
8
0
10
76.0584816
20
-61.5
40
2
50
270
51
341.5650494
0
ARC
8
0
10
80.9415184
20
-59.5
40
2
50
90
51
161.5650494
0
ARC
8
0
10
95.263932
20
-55.5
40
2
50
270
51
333.4349488
0
ARC
8
0
10
99.736068
20
-55.5
40
2
50
90
51
153.4349488
0
ARC
8
0
10
114.263932
20
-55.5
40
2
50
26.5650512
51
90
0
ARC
8
0
10
118.736068
20
-55.5
40
2
50
206.5650512
51
270
0
ARC
8
0
10
133.263932
20
-59.5
40
2
50
26.5650512
51
90
0
ARC
8
0
10
137.736068
20
-59.5
40
2
50
206.5650512
51
270
0
ARC
8
0
10
175.25
20
-63.5
40
2
50
0
51
90
0
ARC
8
0
10
175.25
20
-147.4647021
40
2
50
357.9778183
51
0
0
ARC
8
0
10
175.1240655
20
-151.0314056
40
2
50
341.9999994
51
357.9778183
0
ARC
8
0
10
170.276157
20
-165.9517339
40
2
50
251.1144934
51
341.9999994
0
ARC
8
0
10
150.1795374
20
-163.3043837
40
2
50
71.1144934
51
87.9084344
0
ARC
8
0
10
114.5819029
20
-158.0016578
40
2
50
267.3974355
51
267.9084344
0
ARC
8
0
10
93.2632539
20
-157.0326283
40
2
50
230.1944296
51
267.3974355
0
ARC
8
0
10
76.7083713
20
-148.443726
40
2
50
50.1944296
51
85.4860105
0
ARC
8
0
10
41.5
20
-141.6516717
40
2
50
180
51
265.4860105
0
ENDSEC
0
EOF