0
SECTION
2
HEADER
9
$INSUNITS
70
4
0
ENDSEC
0
SECTION
2
TABLES
0
TABLE
2
LTYPE
0
LTYPE
72
65
70
64
2
CONTINUOUS
3
______
73
0
40
0
0
ENDTAB
0
TABLE
2
LAYER
0
ENDTAB
0
ENDSEC
0
SECTION
2
ENTITIES
0
LINE
8
0
10
39.5
20
-141.6516717
11
39.5
21
-65.5
0
LINE
8
0
10
41.5
20
-63.5
11
76.0584816
21
-63.5
0
LINE
8
0
10
77.9558481
20
-62.1324556
11
79.0441519
21
-58.8675444
0
LINE
8
0
10
80.9415184
20
-57.5
11
95.263932
21
-57.5
0
LINE
8
0
10
97.0527864
20
-56.3944272
11
97.9472136
21
-54.6055728
0
LINE
8
0
10
99.736068
20
-53.5
11
114.263932
21
-53.5
0
LINE
8
0
10
116.0527864
20
-54.6055728
11
116.9472136
21
-56.3944272
0
LINE
8
0
10
118.736068
20
-57.5
11
133.263932
21
-57.5
0
LINE
8
0
10
135.0527864
20
-58.6055728
11
135.9472136
21
-60.3944272
0
LINE
8
0
10
137.736068
20
-61.5
11
175.25
21
-61.5
0
LINE
8
0
10
177.25
20
-147.5
11
177.25
21
-63.5
0
LINE
8
0
10
177.25
20
-147.5
11
177.1509808
21
-148.4893461
0
LINE
8
0
10
177.1509808
20
-148.4893461
11
173.5587714
21
-164.0489143
0
LINE
8
0
10
171.1300663
20
-165.5405665
11
151.7698163
21
-160.7545853
0
LINE
8
0
10
151.3287243
20
-160.6965175
11
115.5259823
21
-160.0005051
0
LINE
8
0
10
115.4740399
20
-159.99882
11
94.1375493
21
-159.0289795
0
LINE
8
0
10
92.9970767
20
-158.6070912
11
77.974108
21
-146.8703969
0
LINE
8
0
10
76.900225
20
-146.4526493
11
41.342595
21
-143.645468
0
ARC
8
0
10
41.5
20
-65.5
40
2
50
90
51
180
0
ARC
8
0
10
76.0584816
20
-61.5
40
2
50
270
51
341.5650494
0
ARC
8
0
10
80.9415184
20
-59.5
40
2
50
90
51
161.5650494
0
ARC
8
0
10
95.263932
20
-55.5
40
2
50
270
51
333.4349488
0
ARC
8
0
10
99.736068
20
-55.5
40
2
50
90
51
153.4349488
0
ARC
8
0
10
114.263932
20
-55.5
40
2
50
26.5650512
51
90
0
ARC
8
0
10
118.736068
20
-55.5
40
2
50
206.5650512
51
270
0
ARC
8
0
10
133.263932
20
-59.5
40
2
50
26.5650512
51
90
0
ARC
8
0
10
137.736068
20
-59.5
40
2
50
206.5650512
51
270
0
ARC
8
0
10
175.25
20
-63.5
40
2
50
0
51
90
0
ARC
8
0
10
171.6100313
20
-163.5990121
40
2
50
256.1144923
51
346.9999979
0
ARC
8
0
10
151.2898513
20
-162.6961397
40
2
50
76.1144923
51
88.8863005
0
ARC
8
0
10
115.5648553
20
-158.0008829
40
2
50
267.3974355
51
268.8863005
0
ARC
8
0
10
94.2283647
20
-157.0310424
40
2
50
232.0012704
51
267.3974355
0
ARC
8
0
10
76.74282
20
-148.4464456
40
2
50
52.0012704
51
85.4860105
0
ARC
8
0
10
41.5
20
-141.6516717
40
2
50
180
51
265.4860105
0
ENDSEC
0
EOF