0
SECTION
2
HEADER
9
$INSUNITS
70
4
0
ENDSEC
0
SECTION
2
TABLES
0
TABLE
2
LTYPE
0
LTYPE
72
65
70
64
2
CONTINUOUS
3
______
73
0
40
0
0
ENDTAB
0
TABLE
2
LAYER
0
ENDTAB
0
ENDSEC
0
SECTION
2
ENTITIES
0
LINE
8
0
10
39.5
20
-140.8321251
11
39.5
21
-64.49
0
LINE
8
0
10
40.49
20
-63.5
11
58.4351475
21
-63.5
0
LINE
8
0
10
58.5642975
20
-63.4915398
11
77.4873536
21
-61.001664
0
LINE
8
0
10
77.5126066
20
-60.9980095
11
96.4232735
21
-58.0121147
0
LINE
8
0
10
96.5776765
20
-58
11
117.4351475
21
-58
0
LINE
8
0
10
117.5642975
20
-58.0084602
11
136.481164
21
-60.4975216
0
LINE
8
0
10
136.5189179
20
-60.501754
11
157
21
-62.4006623
0
LINE
8
0
10
160.6625536
20
-104.014869
11
177.2704204
21
-104.1896886
0
LINE
8
0
10
178.25
20
-141.8502388
11
178.25
21
-105.1796338
0
LINE
8
0
10
178.2057038
20
-142.1430601
11
169.2117865
21
-171.1900594
0
LINE
8
0
10
167.9274828
20
-171.8275338
11
165.1764646
21
-170.8262451
0
LINE
8
0
10
165.1139485
20
-170.805816
11
149.2895767
21
-166.2105278
0
LINE
8
0
10
149.1151485
20
-166.1764856
11
113.5506935
21
-162.505233
0
LINE
8
0
10
91.6923569
20
-162.5
11
113.4490378
21
-162.5
0
LINE
8
0
10
91.3216385
20
-162.4279694
11
40.1192816
21
-141.7500945
0
ARC
8
0
10
40.49
20
-64.49
40
0.99
50
90
51
180
0
ARC
8
0
10
58.4351475
20
-62.51
40
0.99
50
270
51
277.4958569
0
ARC
8
0
10
77.3582036
20
-60.0201242
40
0.99
50
277.4958569
51
278.9726278
0
ARC
8
0
10
96.5776765
20
-58.99
40
0.99
50
90
51
98.9726278
0
ARC
8
0
10
117.4351475
20
-58.99
40
0.99
50
82.5041431
51
90
0
ARC
8
0
10
136.610314
20
-59.5159818
40
0.99
50
262.5041431
51
264.7029514
0
ARC
8
0
10
160.6729741
20
-103.0249238
40
0.99
50
260.0389131
51
269.3969107
0
ARC
8
0
10
177.26
20
-105.1796338
40
0.99
50
0
51
89.3969107
0
ARC
8
0
10
177.26
20
-141.8502388
40
0.99
50
342.7957391
51
0
0
ARC
8
0
10
168.2660827
20
-170.8972381
40
0.99
50
250.0000019
51
342.7957391
0
ARC
8
0
10
164.8378647
20
-171.7565408
40
0.99
50
70.0000019
51
73.8070704
0
ARC
8
0
10
149.0134928
20
-167.1612526
40
0.99
50
73.8070704
51
84.1063383
0
ARC
8
0
10
113.4490378
20
-163.49
40
0.99
50
84.1063383
51
90
0
ARC
8
0
10
91.6923569
20
-161.51
40
0.99
50
248.0088719
51
270
0
ARC
8
0
10
40.49
20
-140.8321251
40
0.99
50
180
51
248.0088719
0
LINE
8
0
10
43
20
-138
11
57
21
-138
0
LINE
8
0
10
57
20
-138
11
57
21
-124
0
LINE
8
0
10
57
20
-124
11
43
21
-124
0
LINE
8
0
10
43
20
-124
11
43
21
-138
0
LINE
8
0
10
43
20
-119
11
57
21
-119
0
LINE
8
0
10
57
20
-119
11
57
21
-105
0
LINE
8
0
10
57
20
-105
11
43
21
-105
0
LINE
8
0
10
43
20
-105
11
43
21
-119
0
LINE
8
0
10
43
20
-100
11
57
21
-100
0
LINE
8
0
10
57
20
-100
11
57
21
-86
0
LINE
8
0
10
57
20
-86
11
43
21
-86
0
LINE
8
0
10
43
20
-86
11
43
21
-100
0
LINE
8
0
10
43
20
-81
11
57
21
-81
0
LINE
8
0
10
57
20
-81
11
57
21
-67
0
LINE
8
0
10
57
20
-67
11
43
21
-67
0
LINE
8
0
10
43
20
-67
11
43
21
-81
0
LINE
8
0
10
62
20
-138
11
76
21
-138
0
LINE
8
0
10
76
20
-138
11
76
21
-124
0
LINE
8
0
10
76
20
-124
11
62
21
-124
0
LINE
8
0
10
62
20
-124
11
62
21
-138
0
LINE
8
0
10
62
20
-119
11
76
21
-119
0
LINE
8
0
10
76
20
-119
11
76
21
-105
0
LINE
8
0
10
76
20
-105
11
62
21
-105
0
LINE
8
0
10
62
20
-105
11
62
21
-119
0
LINE
8
0
10
62
20
-100
11
76
21
-100
0
LINE
8
0
10
76
20
-100
11
76
21
-86
0
LINE
8
0
10
76
20
-86
11
62
21
-86
0
LINE
8
0
10
62
20
-86
11
62
21
-100
0
LINE
8
0
10
62
20
-81
11
76
21
-81
0
LINE
8
0
10
76
20
-81
11
76
21
-67
0
LINE
8
0
10
76
20
-67
11
62
21
-67
0
LINE
8
0
10
62
20
-67
11
62
21
-81
0
LINE
8
0
10
81
20
-135.5
11
95
21
-135.5
0
LINE
8
0
10
95
20
-135.5
11
95
21
-121.5
0
LINE
8
0
10
95
20
-121.5
11
81
21
-121.5
0
LINE
8
0
10
81
20
-121.5
11
81
21
-135.5
0
LINE
8
0
10
81
20
-116.5
11
95
21
-116.5
0
LINE
8
0
10
95
20
-116.5
11
95
21
-102.5
0
LINE
8
0
10
95
20
-102.5
11
81
21
-102.5
0
LINE
8
0
10
81
20
-102.5
11
81
21
-116.5
0
LINE
8
0
10
81
20
-97.5
11
95
21
-97.5
0
LINE
8
0
10
95
20
-97.5
11
95
21
-83.5
0
LINE
8
0
10
95
20
-83.5
11
81
21
-83.5
0
LINE
8
0
10
81
20
-83.5
11
81
21
-97.5
0
LINE
8
0
10
81
20
-78.5
11
95
21
-78.5
0
LINE
8
0
10
95
20
-78.5
11
95
21
-64.5
0
LINE
8
0
10
95
20
-64.5
11
81
21
-64.5
0
LINE
8
0
10
81
20
-64.5
11
81
21
-78.5
0
LINE
8
0
10
100
20
-132.5
11
114
21
-132.5
0
LINE
8
0
10
114
20
-132.5
11
114
21
-118.5
0
LINE
8
0
10
114
20
-118.5
11
100
21
-118.5
0
LINE
8
0
10
100
20
-118.5
11
100
21
-132.5
0
LINE
8
0
10
100
20
-113.5
11
114
21
-113.5
0
LINE
8
0
10
114
20
-113.5
11
114
21
-99.5
0
LINE
8
0
10
114
20
-99.5
11
100
21
-99.5
0
LINE
8
0
10
100
20
-99.5
11
100
21
-113.5
0
LINE
8
0
10
100
20
-94.5
11
114
21
-94.5
0
LINE
8
0
10
114
20
-94.5
11
114
21
-80.5
0
LINE
8
0
10
114
20
-80.5
11
100
21
-80.5
0
LINE
8
0
10
100
20
-80.5
11
100
21
-94.5
0
LINE
8
0
10
100
20
-75.5
11
114
21
-75.5
0
LINE
8
0
10
114
20
-75.5
11
114
21
-61.5
0
LINE
8
0
10
114
20
-61.5
11
100
21
-61.5
0
LINE
8
0
10
100
20
-61.5
11
100
21
-75.5
0
LINE
8
0
10
119
20
-135
11
133
21
-135
0
LINE
8
0
10
133
20
-135
11
133
21
-121
0
LINE
8
0
10
133
20
-121
11
119
21
-121
0
LINE
8
0
10
119
20
-121
11
119
21
-135
0
LINE
8
0
10
119
20
-116
11
133
21
-116
0
LINE
8
0
10
133
20
-116
11
133
21
-102
0
LINE
8
0
10
133
20
-102
11
119
21
-102
0
LINE
8
0
10
119
20
-102
11
119
21
-116
0
LINE
8
0
10
119
20
-97
11
133
21
-97
0
LINE
8
0
10
133
20
-97
11
133
21
-83
0
LINE
8
0
10
133
20
-83
11
119
21
-83
0
LINE
8
0
10
119
20
-83
11
119
21
-97
0
LINE
8
0
10
119
20
-78
11
133
21
-78
0
LINE
8
0
10
133
20
-78
11
133
21
-64
0
LINE
8
0
10
133
20
-64
11
119
21
-64
0
LINE
8
0
10
119
20
-64
11
119
21
-78
0
LINE
8
0
10
138
20
-137.5
11
152
21
-137.5
0
LINE
8
0
10
152
20
-137.5
11
152
21
-123.5
0
LINE
8
0
10
152
20
-123.5
11
138
21
-123.5
0
LINE
8
0
10
138
20
-123.5
11
138
21
-137.5
0
LINE
8
0
10
138
20
-118.5
11
152
21
-118.5
0
LINE
8
0
10
152
20
-118.5
11
152
21
-104.5
0
LINE
8
0
10
152
20
-104.5
11
138
21
-104.5
0
LINE
8
0
10
138
20
-104.5
11
138
21
-118.5
0
LINE
8
0
10
138
20
-99.5
11
152
21
-99.5
0
LINE
8
0
10
152
20
-99.5
11
152
21
-85.5
0
LINE
8
0
10
152
20
-85.5
11
138
21
-85.5
0
LINE
8
0
10
138
20
-85.5
11
138
21
-99.5
0
LINE
8
0
10
138
20
-80.5
11
152
21
-80.5
0
LINE
8
0
10
152
20
-80.5
11
152
21
-66.5
0
LINE
8
0
10
152
20
-66.5
11
138
21
-66.5
0
LINE
8
0
10
138
20
-66.5
11
138
21
-80.5
0
LINE
8
0
10
110
20
-158.5
11
110
21
-143.5
0
LINE
8
0
10
115
20
-157
11
129
21
-157
0
LINE
8
0
10
129
20
-157
11
129
21
-143
0
LINE
8
0
10
129
20
-143
11
115
21
-143
0
LINE
8
0
10
115
20
-143
11
115
21
-157
0
LINE
8
0
10
134.4165469
20
-157.3632727
11
148.3632727
21
-158.5834531
0
LINE
8
0
10
148.3632727
20
-158.5834531
11
149.5834531
21
-144.6367273
0
LINE
8
0
10
149.5834531
20
-144.6367273
11
135.6367273
21
-143.4165469
0
LINE
8
0
10
135.6367273
20
-143.4165469
11
134.4165469
21
-157.3632727
0
LINE
8
0
10
154.6828268
20
-160.0897177
11
167.8385234
21
-164.8779997
0
LINE
8
0
10
167.8385234
20
-164.8779997
11
172.6268054
21
-151.7223031
0
LINE
8
0
10
172.6268054
20
-151.7223031
11
159.4711088
21
-146.9340211
0
LINE
8
0
10
159.4711088
20
-146.9340211
11
154.6828268
21
-160.0897177
0
LINE
8
0
10
158.5
20
-134
11
176.5
21
-134
0
LINE
8
0
10
176.5
20
-134
11
176.5
21
-119
0
LINE
8
0
10
176.5
20
-119
11
158.5
21
-119
0
LINE
8
0
10
158.5
20
-119
11
158.5
21
-134
0
LINE
8
0
10
157
20
-62.4006623
11
157
21
-102
0
LINE
8
0
10
159
20
-104
11
160.5017246
21
-104
0
ARC
8
0
10
159
20
-102
40
2
50
180
51
270
0
LINE
8
0
10
92
20
-158.5
11
110
21
-158.5
0
LINE
8
0
10
110
20
-143.5
11
92
21
-143.5
0
LINE
8
0
10
92
20
-143.5
11
92
21
-158.5
0
ENDSEC
0
EOF