0
SECTION
2
HEADER
9
$INSUNITS
70
4
0
ENDSEC
0
SECTION
2
TABLES
0
TABLE
2
LTYPE
0
LTYPE
72
65
70
64
2
CONTINUOUS
3
______
73
0
40
0
0
ENDTAB
0
TABLE
2
LAYER
0
ENDTAB
0
ENDSEC
0
SECTION
2
ENTITIES
0
LINE
8
0
10
39.5
20
-141.6516717
11
39.5
21
-65.5
0
LINE
8
0
10
41.5
20
-63.5
11
76.0584816
21
-63.5
0
LINE
8
0
10
77.9558481
20
-62.1324556
11
79.0441519
21
-58.8675444
0
LINE
8
0
10
80.9415184
20
-57.5
11
95.263932
21
-57.5
0
LINE
8
0
10
97.0527864
20
-56.3944272
11
97.9472136
21
-54.6055728
0
LINE
8
0
10
99.736068
20
-53.5
11
114.263932
21
-53.5
0
LINE
8
0
10
116.0527864
20
-54.6055728
11
116.9472136
21
-56.3944272
0
LINE
8
0
10
118.736068
20
-57.5
11
133.263932
21
-57.5
0
LINE
8
0
10
135.0527864
20
-58.6055728
11
135.9472136
21
-60.3944272
0
LINE
8
0
10
137.736068
20
-61.5
11
155.2986415
21
-61.5
0
LINE
8
0
10
177.25
20
-147.4698008
11
177.25
21
-105.4682458
0
LINE
8
0
10
177.2490881
20
-147.530188
11
177.1460193
21
-150.9422274
0
LINE
8
0
10
177.0490442
20
-151.4998742
11
172.2029654
21
-166.4145711
0
LINE
8
0
10
169.6528224
20
-167.6886411
11
151.3272036
21
-161.4122665
0
LINE
8
0
10
150.7521667
20
-161.3057029
11
115.0089097
21
-160.0003254
0
LINE
8
0
10
114.9910875
20
-159.9995949
11
93.6546079
21
-159.0297549
0
LINE
8
0
10
92.4899183
20
-158.5886438
11
77.9814792
21
-146.8882897
0
LINE
8
0
10
76.8833792
20
-146.4513194
11
41.342595
21
-143.645468
0
ARC
8
0
10
41.5
20
-65.5
40
2
50
90
51
180
0
ARC
8
0
10
76.0584816
20
-61.5
40
2
50
270
51
341.5650494
0
ARC
8
0
10
80.9415184
20
-59.5
40
2
50
90
51
161.5650494
0
ARC
8
0
10
95.263932
20
-55.5
40
2
50
270
51
333.4349488
0
ARC
8
0
10
99.736068
20
-55.5
40
2
50
90
51
153.4349488
0
ARC
8
0
10
114.263932
20
-55.5
40
2
50
26.5650512
51
90
0
ARC
8
0
10
118.736068
20
-55.5
40
2
50
206.5650512
51
270
0
ARC
8
0
10
133.263932
20
-59.5
40
2
50
26.5650512
51
90
0
ARC
8
0
10
137.736068
20
-59.5
40
2
50
206.5650512
51
270
0
ARC
8
0
10
155.2986415
20
-63.5
40
2
50
53.0814388
51
90
0
ARC
8
0
10
175.25
20
-147.4698008
40
2
50
358.2697712
51
0
0
ARC
8
0
10
175.1469312
20
-150.8818402
40
2
50
341.9999994
51
358.2697712
0
ARC
8
0
10
170.3008524
20
-165.7965371
40
2
50
251.0940894
51
341.9999994
0
ARC
8
0
10
150.6791735
20
-163.3043705
40
2
50
71.0940894
51
87.9084344
0
ARC
8
0
10
115.0819029
20
-158.0016578
40
2
50
267.3974355
51
267.9084344
0
ARC
8
0
10
93.7454234
20
-157.0318178
40
2
50
231.1155
51
267.3974355
0
ARC
8
0
10
76.7259742
20
-148.4451157
40
2
50
51.1155
51
85.4860105
0
ARC
8
0
10
41.5
20
-141.6516717
40
2
50
180
51
265.4860105
0
LINE
8
0
10
43
20
-138
11
57
21
-138
0
LINE
8
0
10
57
20
-138
11
57
21
-124
0
LINE
8
0
10
57
20
-124
11
43
21
-124
0
LINE
8
0
10
43
20
-124
11
43
21
-138
0
LINE
8
0
10
43
20
-119
11
57
21
-119
0
LINE
8
0
10
57
20
-119
11
57
21
-105
0
LINE
8
0
10
57
20
-105
11
43
21
-105
0
LINE
8
0
10
43
20
-105
11
43
21
-119
0
LINE
8
0
10
43
20
-100
11
57
21
-100
0
LINE
8
0
10
57
20
-100
11
57
21
-86
0
LINE
8
0
10
57
20
-86
11
43
21
-86
0
LINE
8
0
10
43
20
-86
11
43
21
-100
0
LINE
8
0
10
43
20
-81
11
57
21
-81
0
LINE
8
0
10
57
20
-81
11
57
21
-67
0
LINE
8
0
10
57
20
-67
11
43
21
-67
0
LINE
8
0
10
43
20
-67
11
43
21
-81
0
LINE
8
0
10
62
20
-138
11
76
21
-138
0
LINE
8
0
10
76
20
-138
11
76
21
-124
0
LINE
8
0
10
76
20
-124
11
62
21
-124
0
LINE
8
0
10
62
20
-124
11
62
21
-138
0
LINE
8
0
10
62
20
-119
11
76
21
-119
0
LINE
8
0
10
76
20
-119
11
76
21
-105
0
LINE
8
0
10
76
20
-105
11
62
21
-105
0
LINE
8
0
10
62
20
-105
11
62
21
-119
0
LINE
8
0
10
62
20
-100
11
76
21
-100
0
LINE
8
0
10
76
20
-100
11
76
21
-86
0
LINE
8
0
10
76
20
-86
11
62
21
-86
0
LINE
8
0
10
62
20
-86
11
62
21
-100
0
LINE
8
0
10
62
20
-81
11
76
21
-81
0
LINE
8
0
10
76
20
-81
11
76
21
-67
0
LINE
8
0
10
76
20
-67
11
62
21
-67
0
LINE
8
0
10
62
20
-67
11
62
21
-81
0
LINE
8
0
10
81
20
-132
11
95
21
-132
0
LINE
8
0
10
95
20
-132
11
95
21
-118
0
LINE
8
0
10
95
20
-118
11
81
21
-118
0
LINE
8
0
10
81
20
-118
11
81
21
-132
0
LINE
8
0
10
81
20
-113
11
95
21
-113
0
LINE
8
0
10
95
20
-113
11
95
21
-99
0
LINE
8
0
10
95
20
-99
11
81
21
-99
0
LINE
8
0
10
81
20
-99
11
81
21
-113
0
LINE
8
0
10
81
20
-94
11
95
21
-94
0
LINE
8
0
10
95
20
-94
11
95
21
-80
0
LINE
8
0
10
95
20
-80
11
81
21
-80
0
LINE
8
0
10
81
20
-80
11
81
21
-94
0
LINE
8
0
10
81
20
-75
11
95
21
-75
0
LINE
8
0
10
95
20
-75
11
95
21
-61
0
LINE
8
0
10
95
20
-61
11
81
21
-61
0
LINE
8
0
10
81
20
-61
11
81
21
-75
0
LINE
8
0
10
100
20
-128
11
114
21
-128
0
LINE
8
0
10
114
20
-128
11
114
21
-114
0
LINE
8
0
10
114
20
-114
11
100
21
-114
0
LINE
8
0
10
100
20
-114
11
100
21
-128
0
LINE
8
0
10
100
20
-109
11
114
21
-109
0
LINE
8
0
10
114
20
-109
11
114
21
-95
0
LINE
8
0
10
114
20
-95
11
100
21
-95
0
LINE
8
0
10
100
20
-95
11
100
21
-109
0
LINE
8
0
10
100
20
-90
11
114
21
-90
0
LINE
8
0
10
114
20
-90
11
114
21
-76
0
LINE
8
0
10
114
20
-76
11
100
21
-76
0
LINE
8
0
10
100
20
-76
11
100
21
-90
0
LINE
8
0
10
100
20
-71
11
114
21
-71
0
LINE
8
0
10
114
20
-71
11
114
21
-57
0
LINE
8
0
10
114
20
-57
11
100
21
-57
0
LINE
8
0
10
100
20
-57
11
100
21
-71
0
LINE
8
0
10
119
20
-132
11
133
21
-132
0
LINE
8
0
10
133
20
-132
11
133
21
-118
0
LINE
8
0
10
133
20
-118
11
119
21
-118
0
LINE
8
0
10
119
20
-118
11
119
21
-132
0
LINE
8
0
10
119
20
-113
11
133
21
-113
0
LINE
8
0
10
133
20
-113
11
133
21
-99
0
LINE
8
0
10
133
20
-99
11
119
21
-99
0
LINE
8
0
10
119
20
-99
11
119
21
-113
0
LINE
8
0
10
119
20
-94
11
133
21
-94
0
LINE
8
0
10
133
20
-94
11
133
21
-80
0
LINE
8
0
10
133
20
-80
11
119
21
-80
0
LINE
8
0
10
119
20
-80
11
119
21
-94
0
LINE
8
0
10
119
20
-75
11
133
21
-75
0
LINE
8
0
10
133
20
-75
11
133
21
-61
0
LINE
8
0
10
133
20
-61
11
119
21
-61
0
LINE
8
0
10
119
20
-61
11
119
21
-75
0
LINE
8
0
10
138
20
-135
11
152
21
-135
0
LINE
8
0
10
152
20
-135
11
152
21
-121
0
LINE
8
0
10
152
20
-121
11
138
21
-121
0
LINE
8
0
10
138
20
-121
11
138
21
-135
0
LINE
8
0
10
138
20
-116
11
152
21
-116
0
LINE
8
0
10
152
20
-116
11
152
21
-102
0
LINE
8
0
10
152
20
-102
11
138
21
-102
0
LINE
8
0
10
138
20
-102
11
138
21
-116
0
LINE
8
0
10
138
20
-97
11
152
21
-97
0
LINE
8
0
10
152
20
-97
11
152
21
-83
0
LINE
8
0
10
152
20
-83
11
138
21
-83
0
LINE
8
0
10
138
20
-83
11
138
21
-97
0
LINE
8
0
10
138
20
-78
11
152
21
-78
0
LINE
8
0
10
152
20
-78
11
152
21
-64
0
LINE
8
0
10
152
20
-64
11
138
21
-64
0
LINE
8
0
10
138
20
-64
11
138
21
-78
0
LINE
8
0
10
111.5
20
-156
11
111.5
21
-141
0
LINE
8
0
10
116.5
20
-154.5
11
130.5
21
-154.5
0
LINE
8
0
10
130.5
20
-154.5
11
130.5
21
-140.5
0
LINE
8
0
10
130.5
20
-140.5
11
116.5
21
-140.5
0
LINE
8
0
10
116.5
20
-140.5
11
116.5
21
-154.5
0
LINE
8
0
10
136.3908085
20
-155.178117
11
150.178117
21
-157.6091915
0
LINE
8
0
10
150.178117
20
-157.6091915
11
152.6091915
21
-143.821883
0
LINE
8
0
10
152.6091915
20
-143.821883
11
138.821883
21
-141.3908085
0
LINE
8
0
10
138.821883
20
-141.3908085
11
136.3908085
21
-155.178117
0
LINE
8
0
10
156.0131519
20
-159.6105039
11
169.3279432
21
-163.9367418
0
LINE
8
0
10
169.3279432
20
-163.9367418
11
173.6541811
21
-150.6219505
0
LINE
8
0
10
173.6541811
20
-150.6219505
11
160.3393898
21
-146.2957126
0
LINE
8
0
10
160.3393898
20
-146.2957126
11
156.0131519
21
-159.6105039
0
LINE
8
0
10
158
20
-127.9
11
176
21
-127.9
0
LINE
8
0
10
176
20
-127.9
11
176
21
-112.9
0
LINE
8
0
10
176
20
-112.9
11
158
21
-112.9
0
LINE
8
0
10
158
20
-112.9
11
158
21
-127.9
0
LINE
8
0
10
156.5
20
-61.9010198
11
156.5
21
-104.5
0
LINE
8
0
10
158.5
20
-106.5
11
175.5
21
-106.5
0
ARC
8
0
10
158.5
20
-104.5
40
2
50
180
51
270
0
ARC
8
0
10
175.5
20
-104.5
40
2
50
270
51
331.0449765
0
LINE
8
0
10
93.5
20
-156
11
111.5
21
-156
0
LINE
8
0
10
111.5
20
-141
11
93.5
21
-141
0
LINE
8
0
10
93.5
20
-141
11
93.5
21
-156
0
ENDSEC
0
EOF