0
SECTION
2
HEADER
9
$INSUNITS
70
4
0
ENDSEC
0
SECTION
2
TABLES
0
TABLE
2
LTYPE
0
LTYPE
72
65
70
64
2
CONTINUOUS
3
______
73
0
40
0
0
ENDTAB
0
TABLE
2
LAYER
0
ENDTAB
0
ENDSEC
0
SECTION
2
ENTITIES
0
LINE
8
0
10
39.5
20
-141.6516717
11
39.5
21
-65.5
0
LINE
8
0
10
41.5
20
-63.5
11
76.5387503
21
-63.5
0
LINE
8
0
10
78.100488
20
-62.74939
11
78.899512
21
-61.75061
0
LINE
8
0
10
80.4612497
20
-61
11
95.4296325
21
-61
0
LINE
8
0
10
97.0937331
20
-60.1094004
11
97.9062669
21
-58.8905996
0
LINE
8
0
10
99.5703675
20
-58
11
114.5387503
21
-58
0
LINE
8
0
10
116.100488
20
-58.75061
11
116.899512
21
-59.74939
0
LINE
8
0
10
118.4612497
20
-60.5
11
133.3393549
21
-60.5
0
LINE
8
0
10
135.0758412
20
-61.5077221
11
135.9241588
21
-62.9922779
0
LINE
8
0
10
137.6606451
20
-64
11
155.2986415
21
-64
0
LINE
8
0
10
177.25
20
-150
11
177.25
21
-103.5612495
0
LINE
8
0
10
177.25
20
-150
11
177.2163119
21
-150.6309468
0
LINE
8
0
10
177.2163119
20
-150.6309468
11
173.6068559
21
-166.2652184
0
LINE
8
0
10
171.253188
20
-167.7738957
11
151.733649
21
-163.7383158
0
LINE
8
0
10
151.3675942
20
-163.6972731
11
115.5259823
21
-163.0005051
0
LINE
8
0
10
115.4740399
20
-162.99882
11
94.2567124
21
-162.034396
0
LINE
8
0
10
92.9559374
20
-161.4729393
11
78.016834
21
-147.0006829
0
LINE
8
0
10
76.7826486
20
-146.443367
11
41.342595
21
-143.645468
0
ARC
8
0
10
41.5
20
-65.5
40
2
50
90
51
180
0
ARC
8
0
10
76.5387503
20
-61.5
40
2
50
270
51
321.3401935
0
ARC
8
0
10
80.4612497
20
-63
40
2
50
90
51
141.3401935
0
ARC
8
0
10
95.4296325
20
-59
40
2
50
270
51
326.3099325
0
ARC
8
0
10
99.5703675
20
-60
40
2
50
90
51
146.3099325
0
ARC
8
0
10
114.5387503
20
-60
40
2
50
38.6598065
51
90
0
ARC
8
0
10
118.4612497
20
-58.5
40
2
50
218.6598065
51
270
0
ARC
8
0
10
133.3393549
20
-62.5
40
2
50
29.7448806
51
90
0
ARC
8
0
10
137.6606451
20
-62
40
2
50
209.7448806
51
270
0
ARC
8
0
10
155.2986415
20
-66
40
2
50
31.7143751
51
90
0
ARC
8
0
10
171.6581158
20
-165.8153162
40
2
50
258.3189214
51
346.9999979
0
ARC
8
0
10
151.3287212
20
-165.6968953
40
2
50
78.3189214
51
88.8863005
0
ARC
8
0
10
115.5648553
20
-161.0008829
40
2
50
267.3974355
51
268.8863005
0
ARC
8
0
10
94.3475278
20
-160.0364589
40
2
50
225.9093802
51
267.3974355
0
ARC
8
0
10
76.6252436
20
-148.4371633
40
2
50
45.9093802
51
85.4860105
0
ARC
8
0
10
41.5
20
-141.6516717
40
2
50
180
51
265.4860105
0
LINE
8
0
10
43
20
-138
11
57
21
-138
0
LINE
8
0
10
57
20
-138
11
57
21
-124
0
LINE
8
0
10
57
20
-124
11
43
21
-124
0
LINE
8
0
10
43
20
-124
11
43
21
-138
0
LINE
8
0
10
43
20
-119
11
57
21
-119
0
LINE
8
0
10
57
20
-119
11
57
21
-105
0
LINE
8
0
10
57
20
-105
11
43
21
-105
0
LINE
8
0
10
43
20
-105
11
43
21
-119
0
LINE
8
0
10
43
20
-100
11
57
21
-100
0
LINE
8
0
10
57
20
-100
11
57
21
-86
0
LINE
8
0
10
57
20
-86
11
43
21
-86
0
LINE
8
0
10
43
20
-86
11
43
21
-100
0
LINE
8
0
10
43
20
-81
11
57
21
-81
0
LINE
8
0
10
57
20
-81
11
57
21
-67
0
LINE
8
0
10
57
20
-67
11
43
21
-67
0
LINE
8
0
10
43
20
-67
11
43
21
-81
0
LINE
8
0
10
62
20
-138
11
76
21
-138
0
LINE
8
0
10
76
20
-138
11
76
21
-124
0
LINE
8
0
10
76
20
-124
11
62
21
-124
0
LINE
8
0
10
62
20
-124
11
62
21
-138
0
LINE
8
0
10
62
20
-119
11
76
21
-119
0
LINE
8
0
10
76
20
-119
11
76
21
-105
0
LINE
8
0
10
76
20
-105
11
62
21
-105
0
LINE
8
0
10
62
20
-105
11
62
21
-119
0
LINE
8
0
10
62
20
-100
11
76
21
-100
0
LINE
8
0
10
76
20
-100
11
76
21
-86
0
LINE
8
0
10
76
20
-86
11
62
21
-86
0
LINE
8
0
10
62
20
-86
11
62
21
-100
0
LINE
8
0
10
62
20
-81
11
76
21
-81
0
LINE
8
0
10
76
20
-81
11
76
21
-67
0
LINE
8
0
10
76
20
-67
11
62
21
-67
0
LINE
8
0
10
62
20
-67
11
62
21
-81
0
LINE
8
0
10
81
20
-135.5
11
95
21
-135.5
0
LINE
8
0
10
95
20
-135.5
11
95
21
-121.5
0
LINE
8
0
10
95
20
-121.5
11
81
21
-121.5
0
LINE
8
0
10
81
20
-121.5
11
81
21
-135.5
0
LINE
8
0
10
81
20
-116.5
11
95
21
-116.5
0
LINE
8
0
10
95
20
-116.5
11
95
21
-102.5
0
LINE
8
0
10
95
20
-102.5
11
81
21
-102.5
0
LINE
8
0
10
81
20
-102.5
11
81
21
-116.5
0
LINE
8
0
10
81
20
-97.5
11
95
21
-97.5
0
LINE
8
0
10
95
20
-97.5
11
95
21
-83.5
0
LINE
8
0
10
95
20
-83.5
11
81
21
-83.5
0
LINE
8
0
10
81
20
-83.5
11
81
21
-97.5
0
LINE
8
0
10
81
20
-78.5
11
95
21
-78.5
0
LINE
8
0
10
95
20
-78.5
11
95
21
-64.5
0
LINE
8
0
10
95
20
-64.5
11
81
21
-64.5
0
LINE
8
0
10
81
20
-64.5
11
81
21
-78.5
0
LINE
8
0
10
100
20
-132.5
11
114
21
-132.5
0
LINE
8
0
10
114
20
-132.5
11
114
21
-118.5
0
LINE
8
0
10
114
20
-118.5
11
100
21
-118.5
0
LINE
8
0
10
100
20
-118.5
11
100
21
-132.5
0
LINE
8
0
10
100
20
-113.5
11
114
21
-113.5
0
LINE
8
0
10
114
20
-113.5
11
114
21
-99.5
0
LINE
8
0
10
114
20
-99.5
11
100
21
-99.5
0
LINE
8
0
10
100
20
-99.5
11
100
21
-113.5
0
LINE
8
0
10
100
20
-94.5
11
114
21
-94.5
0
LINE
8
0
10
114
20
-94.5
11
114
21
-80.5
0
LINE
8
0
10
114
20
-80.5
11
100
21
-80.5
0
LINE
8
0
10
100
20
-80.5
11
100
21
-94.5
0
LINE
8
0
10
100
20
-75.5
11
114
21
-75.5
0
LINE
8
0
10
114
20
-75.5
11
114
21
-61.5
0
LINE
8
0
10
114
20
-61.5
11
100
21
-61.5
0
LINE
8
0
10
100
20
-61.5
11
100
21
-75.5
0
LINE
8
0
10
119
20
-135
11
133
21
-135
0
LINE
8
0
10
133
20
-135
11
133
21
-121
0
LINE
8
0
10
133
20
-121
11
119
21
-121
0
LINE
8
0
10
119
20
-121
11
119
21
-135
0
LINE
8
0
10
119
20
-116
11
133
21
-116
0
LINE
8
0
10
133
20
-116
11
133
21
-102
0
LINE
8
0
10
133
20
-102
11
119
21
-102
0
LINE
8
0
10
119
20
-102
11
119
21
-116
0
LINE
8
0
10
119
20
-97
11
133
21
-97
0
LINE
8
0
10
133
20
-97
11
133
21
-83
0
LINE
8
0
10
133
20
-83
11
119
21
-83
0
LINE
8
0
10
119
20
-83
11
119
21
-97
0
LINE
8
0
10
119
20
-78
11
133
21
-78
0
LINE
8
0
10
133
20
-78
11
133
21
-64
0
LINE
8
0
10
133
20
-64
11
119
21
-64
0
LINE
8
0
10
119
20
-64
11
119
21
-78
0
LINE
8
0
10
138
20
-137.5
11
152
21
-137.5
0
LINE
8
0
10
152
20
-137.5
11
152
21
-123.5
0
LINE
8
0
10
152
20
-123.5
11
138
21
-123.5
0
LINE
8
0
10
138
20
-123.5
11
138
21
-137.5
0
LINE
8
0
10
138
20
-118.5
11
152
21
-118.5
0
LINE
8
0
10
152
20
-118.5
11
152
21
-104.5
0
LINE
8
0
10
152
20
-104.5
11
138
21
-104.5
0
LINE
8
0
10
138
20
-104.5
11
138
21
-118.5
0
LINE
8
0
10
138
20
-99.5
11
152
21
-99.5
0
LINE
8
0
10
152
20
-99.5
11
152
21
-85.5
0
LINE
8
0
10
152
20
-85.5
11
138
21
-85.5
0
LINE
8
0
10
138
20
-85.5
11
138
21
-99.5
0
LINE
8
0
10
138
20
-80.5
11
152
21
-80.5
0
LINE
8
0
10
152
20
-80.5
11
152
21
-66.5
0
LINE
8
0
10
152
20
-66.5
11
138
21
-66.5
0
LINE
8
0
10
138
20
-66.5
11
138
21
-80.5
0
LINE
8
0
10
112
20
-159
11
112
21
-144
0
LINE
8
0
10
117
20
-157.5
11
131
21
-157.5
0
LINE
8
0
10
131
20
-157.5
11
131
21
-143.5
0
LINE
8
0
10
131
20
-143.5
11
117
21
-143.5
0
LINE
8
0
10
117
20
-143.5
11
117
21
-157.5
0
LINE
8
0
10
136.4165469
20
-158.8632727
11
150.3632727
21
-160.0834531
0
LINE
8
0
10
150.3632727
20
-160.0834531
11
151.5834531
21
-146.1367273
0
LINE
8
0
10
151.5834531
20
-146.1367273
11
137.6367273
21
-144.9165469
0
LINE
8
0
10
137.6367273
20
-144.9165469
11
136.4165469
21
-158.8632727
0
LINE
8
0
10
155.4414904
20
-160.4852427
11
169.0826713
21
-163.6345574
0
LINE
8
0
10
169.0826713
20
-163.6345574
11
172.231986
21
-149.9933765
0
LINE
8
0
10
172.231986
20
-149.9933765
11
158.5908051
21
-146.8440618
0
LINE
8
0
10
158.5908051
20
-146.8440618
11
155.4414904
21
-160.4852427
0
LINE
8
0
10
158.5
20
-130.4
11
176.5
21
-130.4
0
LINE
8
0
10
176.5
20
-130.4
11
176.5
21
-115.4
0
LINE
8
0
10
176.5
20
-115.4
11
158.5
21
-115.4
0
LINE
8
0
10
158.5
20
-115.4
11
158.5
21
-130.4
0
LINE
8
0
10
157
20
-64.9486298
11
157
21
-102
0
LINE
8
0
10
159
20
-104
11
176
21
-104
0
ARC
8
0
10
159
20
-102
40
2
50
180
51
270
0
ARC
8
0
10
176
20
-102
40
2
50
270
51
308.6821874
0
LINE
8
0
10
94
20
-159
11
112
21
-159
0
LINE
8
0
10
112
20
-144
11
94
21
-144
0
LINE
8
0
10
94
20
-144
11
94
21
-159
0
ENDSEC
0
EOF