0
SECTION
2
HEADER
9
$INSUNITS
70
4
0
ENDSEC
0
SECTION
2
TABLES
0
TABLE
2
LTYPE
0
LTYPE
72
65
70
64
2
CONTINUOUS
3
______
73
0
40
0
0
ENDTAB
0
TABLE
2
LAYER
0
ENDTAB
0
ENDSEC
0
SECTION
2
ENTITIES
0
LINE
8
0
10
43
20
-138
11
57
21
-138
0
LINE
8
0
10
57
20
-138
11
57
21
-124
0
LINE
8
0
10
57
20
-124
11
43
21
-124
0
LINE
8
0
10
43
20
-124
11
43
21
-138
0
LINE
8
0
10
43
20
-119
11
57
21
-119
0
LINE
8
0
10
57
20
-119
11
57
21
-105
0
LINE
8
0
10
57
20
-105
11
43
21
-105
0
LINE
8
0
10
43
20
-105
11
43
21
-119
0
LINE
8
0
10
43
20
-100
11
57
21
-100
0
LINE
8
0
10
57
20
-100
11
57
21
-86
0
LINE
8
0
10
57
20
-86
11
43
21
-86
0
LINE
8
0
10
43
20
-86
11
43
21
-100
0
LINE
8
0
10
43
20
-81
11
57
21
-81
0
LINE
8
0
10
57
20
-81
11
57
21
-67
0
LINE
8
0
10
57
20
-67
11
43
21
-67
0
LINE
8
0
10
43
20
-67
11
43
21
-81
0
LINE
8
0
10
62
20
-138
11
76
21
-138
0
LINE
8
0
10
76
20
-138
11
76
21
-124
0
LINE
8
0
10
76
20
-124
11
62
21
-124
0
LINE
8
0
10
62
20
-124
11
62
21
-138
0
LINE
8
0
10
62
20
-119
11
76
21
-119
0
LINE
8
0
10
76
20
-119
11
76
21
-105
0
LINE
8
0
10
76
20
-105
11
62
21
-105
0
LINE
8
0
10
62
20
-105
11
62
21
-119
0
LINE
8
0
10
62
20
-100
11
76
21
-100
0
LINE
8
0
10
76
20
-100
11
76
21
-86
0
LINE
8
0
10
76
20
-86
11
62
21
-86
0
LINE
8
0
10
62
20
-86
11
62
21
-100
0
LINE
8
0
10
62
20
-81
11
76
21
-81
0
LINE
8
0
10
76
20
-81
11
76
21
-67
0
LINE
8
0
10
76
20
-67
11
62
21
-67
0
LINE
8
0
10
62
20
-67
11
62
21
-81
0
LINE
8
0
10
81
20
-132
11
95
21
-132
0
LINE
8
0
10
95
20
-132
11
95
21
-118
0
LINE
8
0
10
95
20
-118
11
81
21
-118
0
LINE
8
0
10
81
20
-118
11
81
21
-132
0
LINE
8
0
10
81
20
-113
11
95
21
-113
0
LINE
8
0
10
95
20
-113
11
95
21
-99
0
LINE
8
0
10
95
20
-99
11
81
21
-99
0
LINE
8
0
10
81
20
-99
11
81
21
-113
0
LINE
8
0
10
81
20
-94
11
95
21
-94
0
LINE
8
0
10
95
20
-94
11
95
21
-80
0
LINE
8
0
10
95
20
-80
11
81
21
-80
0
LINE
8
0
10
81
20
-80
11
81
21
-94
0
LINE
8
0
10
81
20
-75
11
95
21
-75
0
LINE
8
0
10
95
20
-75
11
95
21
-61
0
LINE
8
0
10
95
20
-61
11
81
21
-61
0
LINE
8
0
10
81
20
-61
11
81
21
-75
0
LINE
8
0
10
100
20
-129
11
114
21
-129
0
LINE
8
0
10
114
20
-129
11
114
21
-115
0
LINE
8
0
10
114
20
-115
11
100
21
-115
0
LINE
8
0
10
100
20
-115
11
100
21
-129
0
LINE
8
0
10
100
20
-110
11
114
21
-110
0
LINE
8
0
10
114
20
-110
11
114
21
-96
0
LINE
8
0
10
114
20
-96
11
100
21
-96
0
LINE
8
0
10
100
20
-96
11
100
21
-110
0
LINE
8
0
10
100
20
-91
11
114
21
-91
0
LINE
8
0
10
114
20
-91
11
114
21
-77
0
LINE
8
0
10
114
20
-77
11
100
21
-77
0
LINE
8
0
10
100
20
-77
11
100
21
-91
0
LINE
8
0
10
100
20
-72
11
114
21
-72
0
LINE
8
0
10
114
20
-72
11
114
21
-58
0
LINE
8
0
10
114
20
-58
11
100
21
-58
0
LINE
8
0
10
100
20
-58
11
100
21
-72
0
LINE
8
0
10
119
20
-133
11
133
21
-133
0
LINE
8
0
10
133
20
-133
11
133
21
-119
0
LINE
8
0
10
133
20
-119
11
119
21
-119
0
LINE
8
0
10
119
20
-119
11
119
21
-133
0
LINE
8
0
10
119
20
-114
11
133
21
-114
0
LINE
8
0
10
133
20
-114
11
133
21
-100
0
LINE
8
0
10
133
20
-100
11
119
21
-100
0
LINE
8
0
10
119
20
-100
11
119
21
-114
0
LINE
8
0
10
119
20
-95
11
133
21
-95
0
LINE
8
0
10
133
20
-95
11
133
21
-81
0
LINE
8
0
10
133
20
-81
11
119
21
-81
0
LINE
8
0
10
119
20
-81
11
119
21
-95
0
LINE
8
0
10
119
20
-76
11
133
21
-76
0
LINE
8
0
10
133
20
-76
11
133
21
-62
0
LINE
8
0
10
133
20
-62
11
119
21
-62
0
LINE
8
0
10
119
20
-62
11
119
21
-76
0
LINE
8
0
10
138
20
-136
11
152
21
-136
0
LINE
8
0
10
152
20
-136
11
152
21
-122
0
LINE
8
0
10
152
20
-122
11
138
21
-122
0
LINE
8
0
10
138
20
-122
11
138
21
-136
0
LINE
8
0
10
138
20
-117
11
152
21
-117
0
LINE
8
0
10
152
20
-117
11
152
21
-103
0
LINE
8
0
10
152
20
-103
11
138
21
-103
0
LINE
8
0
10
138
20
-103
11
138
21
-117
0
LINE
8
0
10
138
20
-98
11
152
21
-98
0
LINE
8
0
10
152
20
-98
11
152
21
-84
0
LINE
8
0
10
152
20
-84
11
138
21
-84
0
LINE
8
0
10
138
20
-84
11
138
21
-98
0
LINE
8
0
10
138
20
-79
11
152
21
-79
0
LINE
8
0
10
152
20
-79
11
152
21
-65
0
LINE
8
0
10
152
20
-65
11
138
21
-65
0
LINE
8
0
10
138
20
-65
11
138
21
-79
0
LINE
8
0
10
98.5
20
-156.5
11
112.5
21
-156.5
0
LINE
8
0
10
112.5
20
-156.5
11
112.5
21
-142.5
0
LINE
8
0
10
112.5
20
-142.5
11
98.5
21
-142.5
0
LINE
8
0
10
98.5
20
-142.5
11
98.5
21
-156.5
0
LINE
8
0
10
117.5
20
-155.5
11
131.5
21
-155.5
0
LINE
8
0
10
131.5
20
-155.5
11
131.5
21
-141.5
0
LINE
8
0
10
131.5
20
-141.5
11
117.5
21
-141.5
0
LINE
8
0
10
117.5
20
-141.5
11
117.5
21
-155.5
0
LINE
8
0
10
137.3908085
20
-156.178117
11
151.178117
21
-158.6091915
0
LINE
8
0
10
151.178117
20
-158.6091915
11
153.6091915
21
-144.821883
0
LINE
8
0
10
153.6091915
20
-144.821883
11
139.821883
21
-142.3908085
0
LINE
8
0
10
139.821883
20
-142.3908085
11
137.3908085
21
-156.178117
0
LINE
8
0
10
157.0131519
20
-160.6105039
11
170.3279432
21
-164.9367418
0
LINE
8
0
10
170.3279432
20
-164.9367418
11
174.6541811
21
-151.6219505
0
LINE
8
0
10
174.6541811
20
-151.6219505
11
161.3393898
21
-147.2957126
0
LINE
8
0
10
161.3393898
20
-147.2957126
11
157.0131519
21
-160.6105039
0
ENDSEC
0
EOF