0
SECTION
2
HEADER
9
$INSUNITS
70
4
0
ENDSEC
0
SECTION
2
TABLES
0
TABLE
2
LTYPE
0
LTYPE
72
65
70
64
2
CONTINUOUS
3
______
73
0
40
0
0
ENDTAB
0
TABLE
2
LAYER
0
ENDTAB
0
ENDSEC
0
SECTION
2
ENTITIES
0
LINE
8
0
10
39.5
20
-141.6516717
11
39.5
21
-65.5
0
LINE
8
0
10
41.5
20
-63.5
11
76.0584816
21
-63.5
0
LINE
8
0
10
77.9558481
20
-62.1324556
11
79.0441519
21
-58.8675444
0
LINE
8
0
10
80.9415184
20
-57.5
11
95.4296325
21
-57.5
0
LINE
8
0
10
97.0937331
20
-56.6094004
11
97.9062669
21
-55.3905996
0
LINE
8
0
10
99.5703675
20
-54.5
11
114.263932
21
-54.5
0
LINE
8
0
10
116.0527864
20
-55.6055728
11
116.9472136
21
-57.3944272
0
LINE
8
0
10
118.736068
20
-58.5
11
133.263932
21
-58.5
0
LINE
8
0
10
135.0527864
20
-59.6055728
11
135.9472136
21
-61.3944272
0
LINE
8
0
10
137.736068
20
-62.5
11
155.2986415
21
-62.5
0
LINE
8
0
10
157.0642864
20
-63.5605864
11
177.0156449
21
-101.0595254
0
LINE
8
0
10
177.25
20
-148.0660415
11
177.25
21
-101.998939
0
LINE
8
0
10
177.4298526
20
-148.8949343
11
178.7662346
21
-151.8294663
0
LINE
8
0
10
178.8482001
20
-153.2763932
11
174.1535846
21
-167.7249339
0
LINE
8
0
10
171.6047596
20
-168.9994547
11
152.3265969
21
-162.4118416
0
LINE
8
0
10
151.7528781
20
-162.3057288
11
116.0089097
21
-161.0003254
0
LINE
8
0
10
115.9910875
20
-160.9995949
11
94.6624346
21
-160.0301107
0
LINE
8
0
10
93.4867744
20
-159.5800882
11
77.9847224
21
-146.8965911
0
LINE
8
0
10
76.8756518
20
-146.4507094
11
41.342595
21
-143.645468
0
ARC
8
0
10
41.5
20
-65.5
40
2
50
90
51
180
0
ARC
8
0
10
76.0584816
20
-61.5
40
2
50
270
51
341.5650494
0
ARC
8
0
10
80.9415184
20
-59.5
40
2
50
90
51
161.5650494
0
ARC
8
0
10
95.4296325
20
-55.5
40
2
50
270
51
326.3099325
0
ARC
8
0
10
99.5703675
20
-56.5
40
2
50
90
51
146.3099325
0
ARC
8
0
10
114.263932
20
-56.5
40
2
50
26.5650512
51
90
0
ARC
8
0
10
118.736068
20
-56.5
40
2
50
206.5650512
51
270
0
ARC
8
0
10
133.263932
20
-60.5
40
2
50
26.5650512
51
90
0
ARC
8
0
10
137.736068
20
-60.5
40
2
50
206.5650512
51
270
0
ARC
8
0
10
155.2986415
20
-64.5
40
2
50
28.0152653
51
90
0
ARC
8
0
10
175.25
20
-101.998939
40
2
50
0
51
28.0152653
0
ARC
8
0
10
179.25
20
-148.0660415
40
2
50
180
51
204.484459
0
ARC
8
0
10
176.9460871
20
-152.6583592
40
2
50
341.9999994
51
24.484459
0
ARC
8
0
10
172.2514716
20
-167.1068999
40
2
50
251.1339967
51
341.9999994
0
ARC
8
0
10
151.6798849
20
-164.3043964
40
2
50
71.1339967
51
87.9084344
0
ARC
8
0
10
116.0819029
20
-159.0016578
40
2
50
267.3974355
51
267.9084344
0
ARC
8
0
10
94.75325
20
-158.0321736
40
2
50
230.7105927
51
267.3974355
0
ARC
8
0
10
76.7182468
20
-148.4445057
40
2
50
50.7105927
51
85.4860105
0
ARC
8
0
10
41.5
20
-141.6516717
40
2
50
180
51
265.4860105
0
ENDSEC
0
EOF