0
SECTION
2
HEADER
9
$INSUNITS
70
4
0
ENDSEC
0
SECTION
2
TABLES
0
TABLE
2
LTYPE
0
LTYPE
72
65
70
64
2
CONTINUOUS
3
______
73
0
40
0
0
ENDTAB
0
TABLE
2
LAYER
0
ENDTAB
0
ENDSEC
0
SECTION
2
ENTITIES
0
LINE
8
0
10
43
20
-138
11
57
21
-138
0
LINE
8
0
10
57
20
-138
11
57
21
-124
0
LINE
8
0
10
57
20
-124
11
43
21
-124
0
LINE
8
0
10
43
20
-124
11
43
21
-138
0
LINE
8
0
10
43
20
-119
11
57
21
-119
0
LINE
8
0
10
57
20
-119
11
57
21
-105
0
LINE
8
0
10
57
20
-105
11
43
21
-105
0
LINE
8
0
10
43
20
-105
11
43
21
-119
0
LINE
8
0
10
43
20
-100
11
57
21
-100
0
LINE
8
0
10
57
20
-100
11
57
21
-86
0
LINE
8
0
10
57
20
-86
11
43
21
-86
0
LINE
8
0
10
43
20
-86
11
43
21
-100
0
LINE
8
0
10
43
20
-81
11
57
21
-81
0
LINE
8
0
10
57
20
-81
11
57
21
-67
0
LINE
8
0
10
57
20
-67
11
43
21
-67
0
LINE
8
0
10
43
20
-67
11
43
21
-81
0
LINE
8
0
10
62
20
-138
11
76
21
-138
0
LINE
8
0
10
76
20
-138
11
76
21
-124
0
LINE
8
0
10
76
20
-124
11
62
21
-124
0
LINE
8
0
10
62
20
-124
11
62
21
-138
0
LINE
8
0
10
62
20
-119
11
76
21
-119
0
LINE
8
0
10
76
20
-119
11
76
21
-105
0
LINE
8
0
10
76
20
-105
11
62
21
-105
0
LINE
8
0
10
62
20
-105
11
62
21
-119
0
LINE
8
0
10
62
20
-100
11
76
21
-100
0
LINE
8
0
10
76
20
-100
11
76
21
-86
0
LINE
8
0
10
76
20
-86
11
62
21
-86
0
LINE
8
0
10
62
20
-86
11
62
21
-100
0
LINE
8
0
10
62
20
-81
11
76
21
-81
0
LINE
8
0
10
76
20
-81
11
76
21
-67
0
LINE
8
0
10
76
20
-67
11
62
21
-67
0
LINE
8
0
10
62
20
-67
11
62
21
-81
0
LINE
8
0
10
81
20
-132
11
95
21
-132
0
LINE
8
0
10
95
20
-132
11
95
21
-118
0
LINE
8
0
10
95
20
-118
11
81
21
-118
0
LINE
8
0
10
81
20
-118
11
81
21
-132
0
LINE
8
0
10
81
20
-113
11
95
21
-113
0
LINE
8
0
10
95
20
-113
11
95
21
-99
0
LINE
8
0
10
95
20
-99
11
81
21
-99
0
LINE
8
0
10
81
20
-99
11
81
21
-113
0
LINE
8
0
10
81
20
-94
11
95
21
-94
0
LINE
8
0
10
95
20
-94
11
95
21
-80
0
LINE
8
0
10
95
20
-80
11
81
21
-80
0
LINE
8
0
10
81
20
-80
11
81
21
-94
0
LINE
8
0
10
81
20
-75
11
95
21
-75
0
LINE
8
0
10
95
20
-75
11
95
21
-61
0
LINE
8
0
10
95
20
-61
11
81
21
-61
0
LINE
8
0
10
81
20
-61
11
81
21
-75
0
LINE
8
0
10
100
20
-128
11
114
21
-128
0
LINE
8
0
10
114
20
-128
11
114
21
-114
0
LINE
8
0
10
114
20
-114
11
100
21
-114
0
LINE
8
0
10
100
20
-114
11
100
21
-128
0
LINE
8
0
10
100
20
-109
11
114
21
-109
0
LINE
8
0
10
114
20
-109
11
114
21
-95
0
LINE
8
0
10
114
20
-95
11
100
21
-95
0
LINE
8
0
10
100
20
-95
11
100
21
-109
0
LINE
8
0
10
100
20
-90
11
114
21
-90
0
LINE
8
0
10
114
20
-90
11
114
21
-76
0
LINE
8
0
10
114
20
-76
11
100
21
-76
0
LINE
8
0
10
100
20
-76
11
100
21
-90
0
LINE
8
0
10
100
20
-71
11
114
21
-71
0
LINE
8
0
10
114
20
-71
11
114
21
-57
0
LINE
8
0
10
114
20
-57
11
100
21
-57
0
LINE
8
0
10
100
20
-57
11
100
21
-71
0
LINE
8
0
10
119
20
-132
11
133
21
-132
0
LINE
8
0
10
133
20
-132
11
133
21
-118
0
LINE
8
0
10
133
20
-118
11
119
21
-118
0
LINE
8
0
10
119
20
-118
11
119
21
-132
0
LINE
8
0
10
119
20
-113
11
133
21
-113
0
LINE
8
0
10
133
20
-113
11
133
21
-99
0
LINE
8
0
10
133
20
-99
11
119
21
-99
0
LINE
8
0
10
119
20
-99
11
119
21
-113
0
LINE
8
0
10
119
20
-94
11
133
21
-94
0
LINE
8
0
10
133
20
-94
11
133
21
-80
0
LINE
8
0
10
133
20
-80
11
119
21
-80
0
LINE
8
0
10
119
20
-80
11
119
21
-94
0
LINE
8
0
10
119
20
-75
11
133
21
-75
0
LINE
8
0
10
133
20
-75
11
133
21
-61
0
LINE
8
0
10
133
20
-61
11
119
21
-61
0
LINE
8
0
10
119
20
-61
11
119
21
-75
0
LINE
8
0
10
138
20
-135
11
152
21
-135
0
LINE
8
0
10
152
20
-135
11
152
21
-121
0
LINE
8
0
10
152
20
-121
11
138
21
-121
0
LINE
8
0
10
138
20
-121
11
138
21
-135
0
LINE
8
0
10
138
20
-116
11
152
21
-116
0
LINE
8
0
10
152
20
-116
11
152
21
-102
0
LINE
8
0
10
152
20
-102
11
138
21
-102
0
LINE
8
0
10
138
20
-102
11
138
21
-116
0
LINE
8
0
10
138
20
-97
11
152
21
-97
0
LINE
8
0
10
152
20
-97
11
152
21
-83
0
LINE
8
0
10
152
20
-83
11
138
21
-83
0
LINE
8
0
10
138
20
-83
11
138
21
-97
0
LINE
8
0
10
138
20
-78
11
152
21
-78
0
LINE
8
0
10
152
20
-78
11
152
21
-64
0
LINE
8
0
10
152
20
-64
11
138
21
-64
0
LINE
8
0
10
138
20
-64
11
138
21
-78
0
LINE
8
0
10
98
20
-155.5
11
112
21
-155.5
0
LINE
8
0
10
112
20
-155.5
11
112
21
-141.5
0
LINE
8
0
10
112
20
-141.5
11
98
21
-141.5
0
LINE
8
0
10
98
20
-141.5
11
98
21
-155.5
0
LINE
8
0
10
117
20
-154.5
11
131
21
-154.5
0
LINE
8
0
10
131
20
-154.5
11
131
21
-140.5
0
LINE
8
0
10
131
20
-140.5
11
117
21
-140.5
0
LINE
8
0
10
117
20
-140.5
11
117
21
-154.5
0
LINE
8
0
10
136.4165469
20
-155.8632727
11
150.3632727
21
-157.0834531
0
LINE
8
0
10
150.3632727
20
-157.0834531
11
151.5834531
21
-143.1367273
0
LINE
8
0
10
151.5834531
20
-143.1367273
11
137.6367273
21
-141.9165469
0
LINE
8
0
10
137.6367273
20
-141.9165469
11
136.4165469
21
-155.8632727
0
LINE
8
0
10
156.3505294
20
-158.5685931
11
169.9917103
21
-161.7179078
0
LINE
8
0
10
169.9917103
20
-161.7179078
11
173.141025
21
-148.0767269
0
LINE
8
0
10
173.141025
20
-148.0767269
11
159.4998441
21
-144.9274122
0
LINE
8
0
10
159.4998441
20
-144.9274122
11
156.3505294
21
-158.5685931
0
ENDSEC
0
EOF