0
SECTION
2
HEADER
9
$INSUNITS
70
4
0
ENDSEC
0
SECTION
2
TABLES
0
TABLE
2
LTYPE
0
LTYPE
72
65
70
64
2
CONTINUOUS
3
______
73
0
40
0
0
ENDTAB
0
TABLE
2
LAYER
0
ENDTAB
0
ENDSEC
0
SECTION
2
ENTITIES
0
LINE
8
0
10
43
20
-138
11
57
21
-138
0
LINE
8
0
10
57
20
-138
11
57
21
-124
0
LINE
8
0
10
57
20
-124
11
43
21
-124
0
LINE
8
0
10
43
20
-124
11
43
21
-138
0
LINE
8
0
10
43
20
-119
11
57
21
-119
0
LINE
8
0
10
57
20
-119
11
57
21
-105
0
LINE
8
0
10
57
20
-105
11
43
21
-105
0
LINE
8
0
10
43
20
-105
11
43
21
-119
0
LINE
8
0
10
43
20
-100
11
57
21
-100
0
LINE
8
0
10
57
20
-100
11
57
21
-86
0
LINE
8
0
10
57
20
-86
11
43
21
-86
0
LINE
8
0
10
43
20
-86
11
43
21
-100
0
LINE
8
0
10
43
20
-81
11
57
21
-81
0
LINE
8
0
10
57
20
-81
11
57
21
-67
0
LINE
8
0
10
57
20
-67
11
43
21
-67
0
LINE
8
0
10
43
20
-67
11
43
21
-81
0
LINE
8
0
10
62
20
-138
11
76
21
-138
0
LINE
8
0
10
76
20
-138
11
76
21
-124
0
LINE
8
0
10
76
20
-124
11
62
21
-124
0
LINE
8
0
10
62
20
-124
11
62
21
-138
0
LINE
8
0
10
62
20
-119
11
76
21
-119
0
LINE
8
0
10
76
20
-119
11
76
21
-105
0
LINE
8
0
10
76
20
-105
11
62
21
-105
0
LINE
8
0
10
62
20
-105
11
62
21
-119
0
LINE
8
0
10
62
20
-100
11
76
21
-100
0
LINE
8
0
10
76
20
-100
11
76
21
-86
0
LINE
8
0
10
76
20
-86
11
62
21
-86
0
LINE
8
0
10
62
20
-86
11
62
21
-100
0
LINE
8
0
10
62
20
-81
11
76
21
-81
0
LINE
8
0
10
76
20
-81
11
76
21
-67
0
LINE
8
0
10
76
20
-67
11
62
21
-67
0
LINE
8
0
10
62
20
-67
11
62
21
-81
0
LINE
8
0
10
81
20
-132
11
95
21
-132
0
LINE
8
0
10
95
20
-132
11
95
21
-118
0
LINE
8
0
10
95
20
-118
11
81
21
-118
0
LINE
8
0
10
81
20
-118
11
81
21
-132
0
LINE
8
0
10
81
20
-113
11
95
21
-113
0
LINE
8
0
10
95
20
-113
11
95
21
-99
0
LINE
8
0
10
95
20
-99
11
81
21
-99
0
LINE
8
0
10
81
20
-99
11
81
21
-113
0
LINE
8
0
10
81
20
-94
11
95
21
-94
0
LINE
8
0
10
95
20
-94
11
95
21
-80
0
LINE
8
0
10
95
20
-80
11
81
21
-80
0
LINE
8
0
10
81
20
-80
11
81
21
-94
0
LINE
8
0
10
81
20
-75
11
95
21
-75
0
LINE
8
0
10
95
20
-75
11
95
21
-61
0
LINE
8
0
10
95
20
-61
11
81
21
-61
0
LINE
8
0
10
81
20
-61
11
81
21
-75
0
LINE
8
0
10
100
20
-128
11
114
21
-128
0
LINE
8
0
10
114
20
-128
11
114
21
-114
0
LINE
8
0
10
114
20
-114
11
100
21
-114
0
LINE
8
0
10
100
20
-114
11
100
21
-128
0
LINE
8
0
10
100
20
-109
11
114
21
-109
0
LINE
8
0
10
114
20
-109
11
114
21
-95
0
LINE
8
0
10
114
20
-95
11
100
21
-95
0
LINE
8
0
10
100
20
-95
11
100
21
-109
0
LINE
8
0
10
100
20
-90
11
114
21
-90
0
LINE
8
0
10
114
20
-90
11
114
21
-76
0
LINE
8
0
10
114
20
-76
11
100
21
-76
0
LINE
8
0
10
100
20
-76
11
100
21
-90
0
LINE
8
0
10
100
20
-71
11
114
21
-71
0
LINE
8
0
10
114
20
-71
11
114
21
-57
0
LINE
8
0
10
114
20
-57
11
100
21
-57
0
LINE
8
0
10
100
20
-57
11
100
21
-71
0
LINE
8
0
10
119
20
-132
11
133
21
-132
0
LINE
8
0
10
133
20
-132
11
133
21
-118
0
LINE
8
0
10
133
20
-118
11
119
21
-118
0
LINE
8
0
10
119
20
-118
11
119
21
-132
0
LINE
8
0
10
119
20
-113
11
133
21
-113
0
LINE
8
0
10
133
20
-113
11
133
21
-99
0
LINE
8
0
10
133
20
-99
11
119
21
-99
0
LINE
8
0
10
119
20
-99
11
119
21
-113
0
LINE
8
0
10
119
20
-94
11
133
21
-94
0
LINE
8
0
10
133
20
-94
11
133
21
-80
0
LINE
8
0
10
133
20
-80
11
119
21
-80
0
LINE
8
0
10
119
20
-80
11
119
21
-94
0
LINE
8
0
10
119
20
-75
11
133
21
-75
0
LINE
8
0
10
133
20
-75
11
133
21
-61
0
LINE
8
0
10
133
20
-61
11
119
21
-61
0
LINE
8
0
10
119
20
-61
11
119
21
-75
0
LINE
8
0
10
138
20
-135
11
152
21
-135
0
LINE
8
0
10
152
20
-135
11
152
21
-121
0
LINE
8
0
10
152
20
-121
11
138
21
-121
0
LINE
8
0
10
138
20
-121
11
138
21
-135
0
LINE
8
0
10
138
20
-116
11
152
21
-116
0
LINE
8
0
10
152
20
-116
11
152
21
-102
0
LINE
8
0
10
152
20
-102
11
138
21
-102
0
LINE
8
0
10
138
20
-102
11
138
21
-116
0
LINE
8
0
10
138
20
-97
11
152
21
-97
0
LINE
8
0
10
152
20
-97
11
152
21
-83
0
LINE
8
0
10
152
20
-83
11
138
21
-83
0
LINE
8
0
10
138
20
-83
11
138
21
-97
0
LINE
8
0
10
138
20
-78
11
152
21
-78
0
LINE
8
0
10
152
20
-78
11
152
21
-64
0
LINE
8
0
10
152
20
-64
11
138
21
-64
0
LINE
8
0
10
138
20
-64
11
138
21
-78
0
LINE
8
0
10
97
20
-155.5
11
111
21
-155.5
0
LINE
8
0
10
111
20
-155.5
11
111
21
-141.5
0
LINE
8
0
10
111
20
-141.5
11
97
21
-141.5
0
LINE
8
0
10
97
20
-141.5
11
97
21
-155.5
0
LINE
8
0
10
116
20
-154.5
11
130
21
-154.5
0
LINE
8
0
10
130
20
-154.5
11
130
21
-140.5
0
LINE
8
0
10
130
20
-140.5
11
116
21
-140.5
0
LINE
8
0
10
116
20
-140.5
11
116
21
-154.5
0
LINE
8
0
10
135.8908085
20
-155.178117
11
149.678117
21
-157.6091915
0
LINE
8
0
10
149.678117
20
-157.6091915
11
152.1091915
21
-143.821883
0
LINE
8
0
10
152.1091915
20
-143.821883
11
138.321883
21
-141.3908085
0
LINE
8
0
10
138.321883
20
-141.3908085
11
135.8908085
21
-155.178117
0
LINE
8
0
10
155.5131519
20
-159.6105039
11
168.8279432
21
-163.9367418
0
LINE
8
0
10
168.8279432
20
-163.9367418
11
173.1541811
21
-150.6219505
0
LINE
8
0
10
173.1541811
20
-150.6219505
11
159.8393898
21
-146.2957126
0
LINE
8
0
10
159.8393898
20
-146.2957126
11
155.5131519
21
-159.6105039
0
ENDSEC
0
EOF